<svg width="354" height="338" viewBox="0 0 354 338" fill="none" xmlns="http://www.w3.org/2000/svg">
<path d="M219.64 172.03L219.83 175.91L221.46 207.95L176.18 249.15L160.34 234.67L134.67 211.19L132.67 171.8L219.64 172.03Z" fill="#E2A77D"/>
<path d="M169.51 50.8401C174.64 52.2201 181.6 45.61 184.92 42.91C190.93 38.02 197.76 34.1201 205.04 31.4601C210.37 29.5101 216.23 28.21 221.69 29.76C229.71 32.04 235 40.1 236.49 48.31C239.52 65.02 231.13 82.3101 233.81 99.0501C234.18 101.39 234.83 106.7 238.56 104.14C240.11 103.08 239.12 100.21 240.77 98.94C244.42 96.13 246.22 100.61 246.5 103.32C247.52 112.95 246.57 123.57 242.42 132.57C240.02 137.78 236.38 139.41 232.84 143.27C228.93 147.55 230.02 155.49 228.74 160.65C227.87 164.16 226.45 167.38 224.45 170.24C220.19 176.34 212.39 179.48 207.44 185.08C202.8 190.33 198.53 195.54 191.97 199.1C188.02 201.25 182.36 201.57 177.15 201.6C176.47 201.66 175.79 201.73 175.1 201.78L167.42 50.39C168.11 50.55 168.83 50.67 169.5 50.86L169.51 50.8401Z" fill="#FFC28E"/>
<path d="M98.2202 110.83C98.2202 108.11 99.5602 103.47 103.48 105.89C105.25 106.98 104.56 109.94 106.21 110.84C110.18 113.01 110.28 107.66 110.42 105.29C110.94 96.2901 106.19 87.91 106.89 79.04C107.53 70.92 106.71 62.5601 109.27 54.5901C111.49 47.6901 115.87 41.33 122.1 37.62C127.86 34.19 135.04 33.23 141.5 35.02C147.19 36.59 151.14 40.03 154.97 44.31C159.14 48.98 161.11 48.93 167.43 50.36L175.11 201.75C170.52 202.11 165.77 202.1 162.16 200.59C155.27 197.71 150.5 192.95 145.35 188.2C139.86 183.13 131.79 180.8 126.93 175.16C124.65 172.52 122.91 169.45 121.69 166.05C119.9 161.05 120.18 153.04 115.86 149.18C111.96 145.69 108.17 144.44 105.25 139.5C100.21 130.97 98.1902 120.5 98.2302 110.82L98.2202 110.83Z" fill="#F0B784"/>
<path d="M242.03 91.8199C240.85 97.3199 240.03 102.81 240.19 108.27L233.27 108.62C233.13 107.27 233.13 105.99 233.13 105.2C233.15 101.49 232.86 98.55 232.46 94.87C230.74 78.8 236.52 25.76 203.47 42.46C198.62 44.91 194.34 48.37 189.59 51.02C175.9 58.66 158.32 58.84 144.47 51.49C136.75 47.39 124.44 37.9 116.34 46.6C111.06 52.28 113.06 67.27 112.61 74.24C111.99 83.91 111.04 92.7199 111.82 102.59C112.13 106.59 113.17 110.45 113.28 114.48C102.64 118.46 104.93 106.65 102.87 100.5C99.4501 90.3 98.6601 80.95 98.1101 70.48C97.5701 60.24 93.9601 49.06 97.1801 38.87C103.5 18.89 130.33 7.84995 148.94 3.71995C169.03 -0.750051 191.11 0.289995 210.76 6.33C218.89 8.82 231.41 12.73 237.13 19.49C242.91 26.31 243.49 38.94 245.08 47.64C247.73 62.23 245.06 77.51 242.01 91.81L242.03 91.8199Z" fill="#2B0D04"/>
<path d="M135.18 203.23L113.27 221.94C117.38 229.94 122.6 238.84 129.24 248.12C137.9 260.22 146.83 269.98 154.81 277.64C154.81 277.64 160.82 254.02 176.62 242.26C152.56 234.19 135.19 203.22 135.19 203.22L135.18 203.23Z" fill="white"/>
<path d="M176.65 337.3L176.61 242.25C176.61 242.25 166.1 264.35 154.05 258.46L135.46 212.89L119.08 220.28L100.04 228.92L94.17 230.69L78.61 235.48L56.33 242.26C40.52 247.07 26.2 255.85 14.75 267.76L12.16 270.46C8.60003 274.18 6.15996 278.79 5.20996 283.84C4.12996 289.54 2.49 326.68 0.5 337.3H176.65Z" fill="#414042"/>
<path d="M353.09 337.3C351.09 326.68 349.45 289.54 348.37 283.84C347.43 278.79 344.98 274.19 341.42 270.46C328.26 256.78 311.82 246.7 293.67 241.17L274.97 235.48L259.4 230.69L253.54 228.92L234.5 220.28L218.12 212.89L199.53 258.46C187.48 264.35 176.97 242.25 176.97 242.25L176.94 337.3H353.09Z" fill="#231F20"/>
<path d="M213.66 337.3L223.33 283.47L181.27 237.4H175.61C175.61 237.4 131.37 283.01 131.69 286.32L141.24 337.3H213.66Z" fill="#BAD1DD"/>
<path d="M169.37 268.04L160.21 337.31H194.67L185.51 268.04C185.04 265.92 185.34 263.71 186.38 261.8L192.05 251.32C192.31 250.69 192.16 249.96 191.67 249.49C189.48 247.36 187.3 245.22 185.11 243.09C183.63 241.64 181.84 240.28 180.97 238.38C180.35 237.02 178.66 233.97 176.69 235.26C174.97 236.39 174.39 238.17 173.27 239.67C172.16 241.17 170.41 242.46 169.07 243.77C167.12 245.67 165.17 247.58 163.21 249.48C162.72 249.96 162.57 250.68 162.82 251.31L168.5 261.79C169.54 263.71 169.85 265.92 169.37 268.03V268.04Z" fill="#3D5872"/>
<path d="M178.57 233.64C177.93 234.25 176.95 234.25 176.3 233.64L134.05 193.47L124.61 222.62L142.87 286.31L176.06 237.11C176.74 236.11 178.15 236.11 178.82 237.11L212.01 286.31L230.27 222.62L220.83 193.47L178.58 233.64H178.57Z" fill="#E4F4FF"/>
<path d="M237.82 337.3L272.97 267.62L236.19 257.76L276.52 244.55C270.73 237.71 266.98 234.52 258.15 228.2C241.8 218.66 230.72 213.97 227.11 212.9L208.63 280.26L198.8 337.31H237.82V337.3Z" fill="#414042"/>
<path d="M81.9202 267.62L116.84 337.3H155.76L140.52 263.64L127.75 212.9C124.14 213.94 109.24 217.12 96.7001 227.01C89.5901 232.11 84.3401 237.4 78.3301 244.56L118.66 257.77L81.9102 267.63L81.9202 267.62Z" fill="#231F20"/>
<path d="M243.28 96.89L241.32 92.03C241.32 92.03 219.58 92.2301 209.05 92.5601C198.74 92.8901 186.46 96.09 181.42 102.45L181.26 102.19C178.34 103.72 175.85 104.3 173.79 104.38C171.73 104.43 169.2 104.02 166.19 102.67L166.06 102.94C160.62 96.9099 148.16 94.51 137.85 94.83C127.33 95.17 101.62 98.84 101.62 98.84L100.14 105.52L110.85 110.91C110.78 111.8 110.77 112.71 110.88 113.63C112.39 127.16 126.31 133.82 139.26 133.4C139.62 133.4 139.97 133.37 140.32 133.35C142.73 133.2 145.11 132.79 147.39 132.15C157.07 129.4 164.62 122.47 168.11 113.11C168.59 111.82 168.81 110.54 168.78 109.29C170.67 109.72 172.42 109.9 173.98 109.86C175.55 109.8 177.27 109.51 179.13 108.96C179.18 110.21 179.48 111.47 180.04 112.74C184.12 121.85 192.1 128.29 201.93 130.42C204.25 130.92 206.65 131.17 209.06 131.17C209.41 131.17 209.77 131.17 210.12 131.15C223.08 130.73 236.53 123.2 237.18 109.6C237.23 108.67 237.16 107.76 237.03 106.88L243.27 96.88L243.28 96.89ZM162.7 111.31C159.83 119 153.65 124.69 145.75 126.94C143.88 127.47 141.93 127.8 139.94 127.93L139.06 127.97C128.74 128.3 117.69 123.28 116.54 113.05C116.26 110.53 116.93 108.42 118.61 106.58C121.95 102.93 129.2 100.57 138.01 100.29C148.74 99.94 158.86 102.73 162.06 106.91C163.1 108.26 163.3 109.67 162.69 111.31H162.7ZM209.95 125.7L209.07 125.72C207.09 125.72 205.11 125.51 203.21 125.1C195.19 123.36 188.65 118.07 185.3 110.58C184.58 108.98 184.69 107.57 185.64 106.15C188.57 101.77 198.49 98.35 209.22 98.01C218.03 97.73 225.41 99.61 228.98 103.05C230.77 104.77 231.58 106.85 231.46 109.38C230.97 119.66 220.26 125.37 209.94 125.7H209.95Z" fill="#020202"/>
</svg>
