<svg width="331" height="337" viewBox="0 0 331 337" fill="none" xmlns="http://www.w3.org/2000/svg">
<path d="M97.3298 284.96C105.03 298.14 112.74 311.32 120.44 324.5C121.31 325.98 124.52 330.72 128.21 336.33H159.29C171.92 318.53 185.84 301.65 201.12 286.06C225.65 261.01 248.65 245.23 278.59 227.07C267.3 233.92 257.06 228.4 245.07 228.26C237.42 228.17 232.87 225.76 231.14 225.13C228.75 224.25 216.75 219.66 210.22 211.47C197.38 195.36 202.74 165.83 202.74 165.83C202.74 165.83 188.3 168 163.02 166.38C155.13 165.87 147.22 164.56 139.32 164.32C135.64 164.21 129.25 163.44 126.02 165.67C123.23 167.59 122.27 168.4 122.12 169.22C121.65 171.84 123.13 174.43 123.59 175.16C127.62 181.61 125.26 199.99 117.41 210.91C114.55 214.89 105.52 220.25 87.4699 230.99C80.7499 234.98 73.8999 238.72 73.2499 245.1C72.9799 247.79 73.6799 250.71 75.6599 253.79C82.2699 264.07 90.8298 273.88 97.3198 284.99L97.3298 284.96Z" fill="#DEB09D"/>
<path d="M92.8497 53.01C86.6397 66.56 85.3398 82.42 87.0198 97.87C76.6698 98.84 79.1897 112.76 84.0897 124.52C86.9497 131.39 90.6097 137.51 92.9897 139.89C95.7197 142.62 98.2998 143.96 100.64 144.33C110.26 165.38 123.74 184.79 144.71 194.01C148.83 195.82 152.95 196.8 157.02 197.08V16.25C130.46 15.45 104.97 26.6 92.8497 53.01Z" fill="#E2BBA1"/>
<path d="M231.17 93.12C230.15 66.15 219.37 39.8 195.62 26.27C191.59 23.98 187.19 22.05 182.4 20.56C174.1 17.96 165.5 16.51 157.01 16.25V197.09C184.09 198.99 209.14 169.52 221.61 142.29C233.07 136.24 241.35 123.64 242.18 110.14C242.57 103.83 238.07 93.71 231.17 93.12Z" fill="#F9CFB3"/>
<path d="M188.31 336.33C202.51 291.01 214.5 247.2 214.95 229.15C146.65 273.78 113.57 233.4 113.57 233.4L90.0698 335.17C90.0698 335.17 90.1198 335.63 90.2098 336.33H188.31Z" fill="white"/>
<path d="M319.41 256.44C317.76 248.44 312.82 241.58 305.91 237.33C305.24 236.67 304.53 236 303.62 235.3C297.83 230.87 290.08 229.02 283.42 227.2C246.73 217.25 210.23 211.45 210.23 211.45C210.68 228.19 216.32 245.96 202.92 278.38C191.62 305.72 176.22 324.87 165.43 336.32H330.18C329.07 319.56 321.27 265.44 319.42 256.43L319.41 256.44Z" fill="#38BC44"/>
<path d="M11.4299 256.44C13.0799 248.44 18.0199 241.58 24.9299 237.33C25.5999 236.67 26.3098 236 27.2198 235.3C33.0098 230.87 40.7599 229.02 47.4199 227.2C84.1099 217.25 117.41 210.88 117.41 210.88C116.83 225.34 117.66 250.42 128.66 278.94C139.49 307.03 155.38 325.99 165.42 336.31H0.669922C1.77992 319.55 9.56993 265.43 11.4299 256.42V256.44Z" fill="#38BC44"/>
<path d="M212.3 336.33C228.33 315.67 244.27 296.57 259.8 279.09L238.58 265.21L259.8 238.71L242.2 215.39L208.3 208.41C207.89 225.2 206.79 247.47 197.27 275.02C187.82 302.38 174.88 322.9 164.89 336.33H212.3Z" fill="#31A838"/>
<path d="M117.5 336.33C101.47 315.67 85.53 296.57 70 279.09L91.22 265.21L70 238.71L85.1899 219.9L117.41 210.9C119.36 227.22 123.22 247.3 130.91 269.4C140.86 298 153.88 320.38 164.9 336.34H117.5V336.33Z" fill="#31A838"/>
<path d="M86.16 97.43C87.3 105.59 89.21 113.59 91.75 121.15C84.86 100.63 97.45 67.31 110.39 51.23C161.03 85.84 214.41 101.1 223.58 115.71C225.32 110.86 226.83 105.85 228.82 101.1C229.37 99.8 230.01 95.28 231.41 94.6C231.85 94.38 235.8 94.04 235.49 94.75C236.68 72.09 236.82 47.26 221.8 29.18C206.85 11.19 183.78 -0.44 160.16 0.0100004C107.45 1.03 79.49 49.85 86.16 97.43Z" fill="#594A42"/>
<path d="M245.62 201.13C246.15 227.22 234.2 253.28 214.06 269.98C222.9 256.82 222.4 239.41 218.41 224.1C214.42 208.76 207.32 194.36 203.83 178.9C203.36 176.75 202.94 174.57 202.65 172.33C210.25 163.35 216.67 152.92 221.37 142.79C236.21 158.43 245.18 179.6 245.62 201.13Z" fill="#594A42"/>
</svg>
