<svg width="340" height="337" viewBox="0 0 340 337" fill="none" xmlns="http://www.w3.org/2000/svg">
<path d="M129.36 165.61L129.16 169.42L127.57 200.88L172.04 241.34L187.58 227.12L212.8 204.06L214.76 165.38L129.36 165.61Z" fill="#CCA692"/>
<path d="M178.58 46.59C167.2 42.24 152.29 41.44 140.82 44.91C129.26 48.42 116.78 55.97 114.6 67.93C113.03 76.52 116.84 85.18 115.44 93.92C115.07 96.22 114.44 101.43 110.77 98.92C109.25 97.88 110.22 95.06 108.6 93.82C105.01 91.06 103.25 95.46 102.97 98.12C101.97 107.58 102.9 118.01 106.98 126.84C109.34 131.95 112.91 133.56 116.38 137.35C120.22 141.55 119.15 149.35 120.41 154.41C121.26 157.85 122.66 161.02 124.62 163.82C128.81 169.81 136.46 172.9 141.32 178.39C145.87 183.54 150.07 188.66 156.51 192.16C160.39 194.27 165.95 194.58 171.07 194.61C171.74 194.67 172.41 194.73 173.08 194.79L180.62 46.13C179.94 46.29 179.24 46.41 178.57 46.58L178.58 46.59Z" fill="#E2BBA1"/>
<path d="M248.59 105.51C248.58 102.84 247.28 98.29 243.42 100.67C241.68 101.75 242.36 104.65 240.74 105.53C236.84 107.66 236.74 102.41 236.61 100.09C236.1 91.25 240.77 83.02 240.08 74.31C239.12 62.19 227.47 53.41 216.32 48.75C205.89 44.39 192.05 43.56 180.64 46.14L173.1 194.8C177.61 195.15 182.27 195.14 185.82 193.66C192.58 190.83 197.27 186.16 202.33 181.5C207.72 176.52 215.65 174.23 220.42 168.69C222.66 166.1 224.37 163.09 225.56 159.75C227.32 154.84 227.05 146.97 231.29 143.18C235.12 139.76 238.84 138.52 241.71 133.68C246.65 125.31 248.64 115.03 248.6 105.51H248.59Z" fill="#F9CFB3"/>
<path d="M108.49 86.47C109.78 91.52 109.83 95.24 109.37 100.23C109.31 100.89 109.2 101.9 109.17 103L115.96 103.34C116.09 102.01 116.09 100.76 116.09 99.98C116.07 96.34 116.36 93.45 116.75 89.83C117.27 84.98 116.88 79.95 117.64 75.14C119.65 62.5 131.76 54.13 144.76 53.84C154.31 53.63 163.74 55.93 173.27 56.43C185.04 57.05 190.63 52.03 200.18 47.11C202.74 45.79 201.27 45.53 203.84 46.28C205.5 46.77 207.55 49.02 208.97 49.92C217.53 55.41 233.13 61.2 235.14 71.96C236.72 80.42 235.87 88.93 235.2 97.41C235.11 98.61 233.68 105.02 233.74 109.3L239.05 109.57C241.01 104.53 243.63 97.68 244.32 95.01C247.11 84.34 246.82 79.57 247.59 75C250.34 58.83 252.09 43.29 242.02 29.1C231.24 13.9 214.62 4.5 205.44 5.12C204.92 5.16 198.73 5.36 199.47 6.05C196.36 3.16 190.68 2.68 186.71 1.58C165.56 -4.26 137.88 6.77 121.66 19.23C104.54 32.38 106.05 50.5 107.04 67.87C107.39 73.93 106.99 80.59 108.49 86.44V86.47Z" fill="#515F5F"/>
<path d="M145.94 336.33H229.81C228.45 326.38 226.89 316.45 224.84 306.59C220.51 285.73 216.85 269.19 201.48 254.47C194.93 248.19 181.86 227.57 172.53 229.42C164.76 229.42 142.78 260.83 140.6 267.54C139.78 270.08 139.41 272.3 139.35 274.38C139.16 280.47 141.5 285.46 142.48 293.95C144.12 307.99 144.98 322.18 145.92 336.33H145.94Z" fill="#BAD1DD"/>
<path d="M161.71 323.07L167.52 336.33H199.17L202.05 327.31C202.14 327.02 202.14 326.69 202.05 326.37L184.07 260.69C183.49 258.55 183.6 256.38 184.41 254.55L188.83 244.49C189.02 243.87 188.83 243.13 188.34 242.61C186.19 240.29 184.03 237.97 181.87 235.65C180.4 234.07 178.66 232.56 177.73 230.57C177.06 229.14 175.27 225.92 173.57 227.09C172.09 228.11 171.7 229.88 170.8 231.32C169.9 232.76 168.42 233.93 167.31 235.15C165.69 236.92 164.08 238.69 162.47 240.46C162.06 240.9 161.99 241.62 162.27 242.27L168.24 253.16C169.33 255.14 169.78 257.35 169.51 259.41L161.57 322.12C161.52 322.43 161.57 322.75 161.71 323.06V323.07Z" fill="#3D5872"/>
<path d="M339.75 336.33C338.84 327.82 335.56 291.41 333.83 280.51C331.77 267.56 329.07 254.1 320.89 243.86C311.88 232.6 308.06 226.94 293.79 224.92C278.04 222.69 229.75 212.74 220.69 208.05C215.72 228.99 212.24 250.9 207.33 271.91C207.24 272.29 199 307.03 192.37 336.33H339.76H339.75Z" fill="#728D96"/>
<path d="M214.77 186.83L175.24 225.6C174.66 226.17 173.7 226.1 173.01 225.42L128.1 180.95L109.69 214.24L145.19 274.95L173.04 228.93C173.63 227.96 175.01 228.07 175.75 229.15L211.7 281.13L226.13 218.24L214.77 186.83Z" fill="#E4F4FF"/>
<path d="M213.86 336.33C226.22 306.43 240.79 282.93 252.77 266.33C245.18 262.37 237.59 258.41 229.99 254.45L255.1 243.13C253.64 238.81 250.32 232.05 245.89 222.88C239.26 209.18 223.65 198.54 220.17 197.17L205.92 274.66L200.92 293.93L191.34 336.33H213.87H213.86Z" fill="#647C82"/>
<path d="M174.49 336.33C165.56 308.16 153.23 280.33 143.36 252.84L126.08 204.6C126.08 204.6 125.62 204.74 124.76 204.97C121.63 205.8 113.31 211.04 102.86 213.85C82.4799 219.43 61.3799 228.41 40.7099 231.77C4.8699 237.59 0.799902 297.22 0.149902 336.33H174.49Z" fill="#647C82"/>
<path d="M95.8198 270.44C112.75 291.08 129.93 309.65 145.97 336.33H175.86L157.74 289.77L143.36 252.83L123.51 191.78C120.38 192.6 88.0198 226.84 87.2798 230.81L123.49 245.37L95.8198 270.45V270.44Z" fill="#728D96"/>
</svg>
