<svg width="327" height="337" viewBox="0 0 327 337" fill="none" xmlns="http://www.w3.org/2000/svg">
<path d="M111.14 115.17C111.7 112.15 109.86 107.04 108.73 104.26C108.39 103.43 108.02 102.51 107.56 101.64C106.86 100.33 105.94 99.14 104.57 98.59C98.7497 96.25 93.2598 104.3 92.7798 109.16C92.6698 110.33 92.6697 111.54 92.7397 112.78C92.8197 115.33 93.3897 117.75 94.2097 120.09C94.6197 121.26 95.0897 122.41 95.6197 123.55C101.36 131.27 101.36 147.9 113.84 139.58C118 135.42 113.84 122.94 111.12 118.78C110.92 117.65 110.9 116.45 111.14 115.15V115.17Z" fill="#F0D09F"/>
<path d="M222.28 98.6C220.92 99.15 220 100.34 219.29 101.65C218.82 102.52 218.46 103.44 218.12 104.27C216.99 107.05 215.15 112.16 215.71 115.18C215.95 116.48 215.92 117.68 215.72 118.81C213.01 122.97 208.85 135.45 213.01 139.61C225.49 147.93 225.49 131.29 231.22 123.58C231.74 122.43 232.21 121.29 232.63 120.12C233.45 117.78 234.03 115.35 234.1 112.81C234.18 111.57 234.18 110.36 234.06 109.19C233.59 104.32 228.09 96.27 222.27 98.62L222.28 98.6Z" fill="#E2B477"/>
<path d="M199.4 173.85C199.35 173.9 199.28 173.96 199.23 174.01C198 175.32 196.73 176.63 195.39 177.93C187.36 185.72 177.51 192.93 167.58 194.69C166.88 194.82 165.15 194.88 163.42 194.88C162.32 194.88 161.25 194.85 160.41 194.8V259.32C161.09 259.28 161.73 259.28 162.45 259.18C162.82 259.23 164.16 259.23 164.53 259.18C185.67 262.08 185.88 239.9 202.16 221.29C200.78 211.99 199.55 202.28 198.52 192.18C197.61 183.23 199.29 180.92 199.39 173.85H199.4Z" fill="#D2A965"/>
<path d="M131.05 177.53C129.85 176.35 128.72 175.17 127.61 173.99C127.56 173.94 127.51 173.9 127.46 173.85C126.95 182.23 128.75 183.23 127.84 192.18C126.81 202.28 125.58 211.99 124.2 221.29C139.92 239.26 141.31 260.49 160.42 259.32V194.8C159.95 194.77 159.53 194.74 159.28 194.69C149.18 192.9 139.16 185.47 131.06 177.53H131.05Z" fill="#E2B477"/>
<path d="M106.32 72.63C105.76 75.88 105.43 79.24 105.35 82.69C103.72 94.51 106.7 127.82 106.71 128.52C107.01 143.52 113.42 157.54 123.06 168.93C124.45 170.57 125.99 172.27 127.6 173.99C128.71 175.17 129.84 176.36 131.04 177.53C139.14 185.47 149.16 192.9 159.26 194.69C159.52 194.74 159.93 194.77 160.4 194.8V35.47C127.13 37.65 111.04 45.02 106.3 72.64L106.32 72.63Z" fill="#F0D09F"/>
<path d="M220.54 72.63C215.65 44.18 198.78 37.19 163.43 35.26C162.39 35.32 161.43 35.39 160.42 35.46V194.79C161.25 194.84 162.33 194.87 163.43 194.87C165.16 194.87 166.88 194.81 167.59 194.68C177.52 192.92 187.37 185.71 195.4 177.92C196.74 176.62 198.01 175.31 199.24 174C200.86 172.28 202.41 170.57 203.8 168.92C213.44 157.53 219.85 143.52 220.14 128.51C220.15 127.81 223.14 94.5 221.51 82.68C221.43 79.23 221.1 75.87 220.54 72.62V72.63Z" fill="#E2B477"/>
<path d="M105.45 27.79C91.7198 43.84 92.7099 60.77 96.9099 80.67C98.0199 85.94 100.95 104.86 104.86 120.03C105.45 122.32 108.42 120.58 109.91 120.8C111.89 114.61 109.85 85.62 111.4 77.66C112.88 70.05 114.58 56.3 120.8 51.34C125.41 47.67 131.61 46.58 137.5 46.81C143.39 47.04 149.16 48.45 155.01 49.2C157.2 49.48 159.47 49.44 161.8 49.22V4.85999C159.24 4.99999 156.69 5.19 154.15 5.44C135.81 7.27 117.7 13.49 105.45 27.8V27.79Z" fill="#231F20"/>
<path d="M216.54 0.710003C198.73 5.06 180.14 3.81002 161.8 4.85002V49.21C172.79 48.17 185.03 42.9 194.88 46.17C205.93 49.84 211.97 70.83 214.44 81.01C217.36 93.08 216.36 104.94 216.75 117.3C218.52 117.02 220.29 116.74 222.05 116.46C225.17 99.14 235.24 84.4 236.07 65.82C236.23 62.1 236.13 58.38 235.78 54.68C235.3 49.62 223.06 -0.879997 216.54 0.710003Z" fill="black"/>
<path d="M125.06 215.29L104.86 232.87C108.65 240.38 113.46 248.74 119.59 257.45C127.57 268.81 135.8 277.98 143.16 285.17C143.16 285.17 148.7 262.99 163.26 251.95C141.08 244.37 125.07 215.29 125.07 215.29H125.06Z" fill="white"/>
<path d="M163.28 337L163.25 251.93C163.25 251.93 153.56 272.68 142.46 267.15L125.33 224.35L110.23 231.3L92.6798 239.41L87.2698 241.07L72.9198 245.56L36.4497 256.87C32.3297 258.16 28.6298 260.45 25.6798 263.57L11.6598 278.42C8.37979 281.91 6.12977 286.24 5.25977 290.98C4.22977 296.54 2.64973 326.51 0.719727 336.99H163.29L163.28 337Z" fill="#78919E"/>
<path d="M326.12 337C324.19 326.52 322.61 296.55 321.58 290.99C320.71 286.25 318.46 281.92 315.18 278.43L301.17 263.58C298.22 260.46 294.51 258.17 290.4 256.88L253.93 245.57L239.58 241.08L234.17 239.42L216.62 231.31L201.53 224.36L184.4 267.16C173.3 272.69 163.6 251.94 163.6 251.94L163.57 337.01H326.14L326.12 337Z" fill="#6A828C"/>
<path d="M197 337L206.31 290.64L167.54 247.37H162.32C162.32 247.37 121.55 290.21 121.84 293.32L131.09 337H197.01H197Z" fill="#BAD1DD"/>
<path d="M156.57 276.15L147.89 337.01H180.12L171.44 276.15C171 274.16 171.29 272.09 172.24 270.29L177.48 260.45C177.71 259.86 177.58 259.18 177.12 258.73C175.11 256.73 173.09 254.72 171.08 252.72C169.71 251.36 168.06 250.08 167.27 248.3C166.7 247.02 165.13 244.16 163.31 245.37C161.72 246.44 161.19 248.1 160.16 249.51C159.13 250.92 157.52 252.13 156.29 253.36C154.49 255.15 152.69 256.93 150.89 258.72C150.43 259.17 150.3 259.85 150.53 260.44L155.77 270.28C156.72 272.08 157.01 274.15 156.57 276.14V276.15Z" fill="#0059F8"/>
<path d="M165.05 243.85C164.46 244.42 163.55 244.42 162.96 243.85L124.01 206.13L115.31 233.51L132.14 293.32L162.73 247.11C163.36 246.17 164.66 246.17 165.28 247.11L195.88 293.32L212.71 233.51L204.01 206.13L165.06 243.85H165.05Z" fill="#E4F4FF"/>
<path d="M87.9199 275.76L108.71 337H144.35L141.66 328.17L129.98 272.01L115.28 228.32C111.95 229.3 100.83 234.23 89.5898 237.61C86.3398 244.68 85.8499 250.25 84.6099 254.09L109.84 266.49L87.9199 275.75V275.76Z" fill="#64787D"/>
<path d="M219.1 337L240.11 275.76L218.16 266.5L243.38 254.1C242.14 250.26 241.68 245.81 238.4 238.74C227.21 235.36 216.07 229.34 212.74 228.33L192.76 287.62L186.34 328.17L183.34 337H219.11H219.1Z" fill="#64787D"/>
</svg>
