<svg width="332" height="337" viewBox="0 0 332 337" fill="none" xmlns="http://www.w3.org/2000/svg">
<path d="M211.27 173.55C211.89 177.57 210.85 181.87 211.09 186.04C211.45 192.5 213.99 197.01 216.4 202.85C217.4 205.29 218.08 207.87 219.44 210.13C222.89 215.88 229.83 218.32 236.22 220.34C230.36 241.17 200.7 254.88 181.9 261.47C179.32 262.38 176.61 263.21 173.9 262.87C171.17 262.53 168.73 261.05 166.39 259.59C149.77 249.28 133.16 238.97 116.55 228.65C123.7 219.87 125.95 209.56 125.81 198.51C125.78 196.19 125.46 173.12 124.93 173.12C125.05 173.12 125.18 173.12 125.3 173.12C153.62 173.2 183.12 171.22 211.27 173.54V173.55Z" fill="#E2A77D"/>
<path d="M161.6 52.7C168.02 36.26 173.64 47.49 176.94 44.81C182.92 39.94 189.72 36.07 196.97 33.41C202.27 31.47 208.11 30.18 213.54 31.72C221.52 33.98 226.79 42.01 228.27 50.18C231.29 66.82 222.93 84.03 225.6 100.69C225.97 103.02 226.62 108.3 230.33 105.76C231.87 104.71 230.89 101.85 232.53 100.58C236.17 97.78 237.95 102.24 238.24 104.94C239.26 114.53 238.31 125.11 234.18 134.06C231.79 139.25 228.16 140.87 224.65 144.72C220.76 148.98 221.84 156.88 220.57 162.02C219.71 165.51 218.29 168.72 216.3 171.56C212.05 177.63 204.3 180.76 199.37 186.33C194.75 191.55 190.5 196.74 183.96 200.29C180.02 202.43 174.4 202.75 169.2 202.77C168.53 202.84 167.84 202.9 167.16 202.95L159.51 52.24C160.2 52.4 161.33 53.35 161.58 52.7H161.6Z" fill="#FFC28E"/>
<path d="M90.64 112.43C90.64 109.72 91.97 105.11 95.87 107.52C97.64 108.61 96.95 111.55 98.59 112.44C102.55 114.6 102.65 109.28 102.78 106.92C103.3 97.95 98.56 89.61 99.26 80.79C99.9 72.7 99.08 64.39 101.63 56.45C103.84 49.58 108.2 43.25 114.4 39.56C120.14 36.15 127.28 35.19 133.71 36.96C139.37 38.52 143.3 41.95 147.11 46.21C151.26 50.86 153.22 50.81 159.52 52.23L167.17 202.94C162.6 203.29 157.88 203.29 154.28 201.78C147.42 198.91 142.67 194.18 137.54 189.45C132.08 184.4 124.04 182.08 119.2 176.47C116.93 173.84 115.2 170.79 113.99 167.41C112.21 162.43 112.48 154.45 108.18 150.61C104.3 147.15 100.53 145.89 97.62 140.97C92.61 132.49 90.59 122.06 90.63 112.42L90.64 112.43Z" fill="#F0B784"/>
<path d="M233.8 93.5C232.63 98.98 231.81 104.45 231.97 109.88L225.08 110.23C224.94 108.88 224.94 107.61 224.95 106.82C224.97 103.12 224.68 100.2 224.28 96.53C221.79 73.27 231.54 47.91 197.82 47.32C185.93 47.11 174.33 53.45 162.47 54.24C148.45 55.18 134.18 49.26 122.02 42.22C120.58 41.39 119.04 40.47 117.38 40.6C115.92 40.72 114.66 41.63 113.56 42.59C101.77 52.81 105.86 62.49 105 76.01C104.39 85.63 103.44 94.4 104.21 104.23C104.52 108.21 105.55 112.05 105.67 116.06C95.08 120.03 97.35 108.26 95.3 102.15C88.68 82.38 92.89 58.64 91.02 37.83C90.82 35.6 90.62 33.34 90.97 31.13C91.55 27.47 93.5901 24.19 96.0301 21.4C108.13 7.56001 128.41 5.15 146.73 3.68C160 2.61 175.03 -0.67998 188.24 1.29002C199.65 2.99002 210.48 5.37002 222.21 6.26002C224.48 6.43002 226.95 6.69002 228.56 8.29002C229.83 9.55002 230.3 11.4 230.69 13.15C236.33 38.62 239.3 67.78 233.81 93.49L233.8 93.5Z" fill="#013302"/>
<path d="M111 337H195.37C196.11 325.79 196.89 314.58 198.19 303.46C199.19 294.85 201.57 289.79 201.37 283.62C201.3 281.5 200.93 279.25 200.1 276.68C200.08 276.62 200.03 276.52 200 276.45C205.09 264.88 210.18 253.68 213.57 241.63C214.24 239.24 223.41 222.19 228.56 216.03C229.94 214.38 231.03 213.52 231.59 213.92C229.44 212.4 227.3 210.87 225.15 209.34C224.39 208.8 223.59 208.24 222.66 208.14C221.28 207.99 220.03 208.87 218.91 209.7C204.64 220.3 188.27 228.83 170.6 230.82C152.93 232.81 133.83 227.42 122.14 214.02C105.31 226.25 121.92 263.84 125.69 280.27C120.1 290.91 117.52 302.68 114.7 316.26C113.27 323.15 112.09 330.06 111 336.99V337Z" fill="#E4F4FF"/>
<path d="M147.14 337L133.9 280.31L118.95 216.37C118.95 216.37 118.43 216.6 117.41 216.98C114.56 218.11 105.54 228.41 95.9402 232.6C95.9102 231.58 95.8502 230.59 95.7902 229.6C94.7102 229.86 93.6702 230.15 92.5302 230.38C56.4302 237.8 34.0602 241.12 32.6602 242.19C30.5102 243.82 29.1102 248.68 27.9802 251C24.6002 257.87 21.4302 264.82 18.1202 271.69C12.5902 283.12 11.8102 294.93 10.3802 307.09C10.2102 308.69 10.0302 310.26 9.80017 311.86C9.19017 316.49 7.24017 320.47 6.05017 324.92C5.02017 328.81 4.69018 332.9 4.43018 336.98H147.14V337Z" fill="#4D7062"/>
<path d="M86.3903 275.46C97.2603 290.52 110.23 311.15 121.82 337H146.55L138.96 303.44L121.86 227.78L125.81 198.51C122.29 199.91 67.7302 231.19 66.2502 235.57L109.49 263.41C101.79 267.42 94.1003 271.44 86.4003 275.45L86.3903 275.46Z" fill="#5B877A"/>
<path d="M331.56 337C329.75 323.72 328.27 310.39 327.26 297.03C326.13 282.14 325.33 266.58 317.92 253.62C306.47 233.58 260.08 236.81 238.63 231.04C228.04 228.19 219.34 214.11 216.16 213.27C215.29 213.04 214.82 212.89 214.82 212.89L197.31 261.79C188.4 286.59 177.48 311.67 168.79 337.01H331.56V337Z" fill="#5B877A"/>
<path d="M72.3102 337L73.0102 310.07L69.6602 337H72.3102Z" fill="#435E4D"/>
<path d="M30.6701 337C30.7901 333.03 30.9201 329.05 31.2101 325.11C32.5401 307.1 35.2201 289.23 37.0101 271.27C37.6001 265.39 44.6801 238.33 29.7901 243.75C21.6001 246.73 18.7801 257.03 16.6701 264.53C13.6101 275.41 10.7701 286.21 8.36011 297.3C5.49011 310.5 2.8901 323.75 0.350098 337.01H30.6801L30.6701 337Z" fill="#4D7062"/>
<path d="M168.03 337H200.48C215.05 314.79 230.38 298.07 245.51 279.63L217.46 254.2L267.08 235.09C267.08 235.09 215.64 193.97 212.47 193.13L213.11 217.67L182.73 299.21L168.03 336.99V337Z" fill="#4D7062"/>
<path d="M235.75 98.34L233.8 93.5C233.8 93.5 212.15 93.7 201.68 94.03C191.42 94.36 179.19 97.54 174.17 103.88L174.02 103.62C171.12 105.15 168.63 105.73 166.58 105.8C164.53 105.85 162.01 105.43 159.01 104.1L158.88 104.37C153.46 98.36 141.06 95.97 130.79 96.3C120.31 96.64 94.7202 100.3 94.7202 100.3L93.2402 106.95L103.9 112.31C103.83 113.2 103.82 114.1 103.93 115.02C105.44 128.49 119.28 135.11 132.19 134.7C132.54 134.69 132.89 134.67 133.24 134.65C135.64 134.5 138.01 134.1 140.28 133.45C149.91 130.71 157.43 123.81 160.91 114.5C161.39 113.21 161.61 111.94 161.58 110.69C163.46 111.12 165.2 111.3 166.76 111.26C168.32 111.2 170.04 110.92 171.89 110.36C171.94 111.6 172.23 112.86 172.8 114.12C176.86 123.19 184.81 129.6 194.6 131.72C196.91 132.22 199.29 132.47 201.7 132.47C202.05 132.47 202.4 132.47 202.76 132.45C215.66 132.04 229.06 124.54 229.7 111C229.75 110.07 229.68 109.17 229.55 108.29L235.77 98.33L235.75 98.34ZM155.53 112.7C152.67 120.35 146.52 126.03 138.66 128.26C136.8 128.79 134.85 129.12 132.88 129.24L132.01 129.28C121.73 129.61 110.74 124.61 109.6 114.43C109.32 111.92 109.99 109.82 111.66 107.99C114.98 104.35 122.2 102.01 130.97 101.73C141.66 101.39 151.73 104.16 154.92 108.32C155.95 109.67 156.15 111.06 155.54 112.7H155.53ZM202.56 127.03L201.69 127.05C199.71 127.05 197.75 126.84 195.86 126.44C187.87 124.71 181.37 119.45 178.03 111.99C177.32 110.4 177.43 109 178.37 107.58C181.29 103.22 191.16 99.81 201.85 99.47C210.62 99.19 217.97 101.07 221.52 104.49C223.3 106.21 224.11 108.27 223.99 110.79C223.5 121.02 212.84 126.71 202.57 127.04L202.56 127.03Z" fill="#414042"/>
</svg>
