<svg width="337" height="337" viewBox="0 0 337 337" fill="none" xmlns="http://www.w3.org/2000/svg">
<path d="M219.28 183.22L219.48 187.05C220.53 207.77 217.17 220.18 233.48 235.24C240.15 241.4 247.02 249.42 245.52 258.38C244.11 266.77 235.66 272.27 227.35 274.13C219.05 275.99 210.35 275.28 201.99 276.87C192.22 278.72 182.92 283.66 172.98 283.27C160.86 282.8 150.55 274.55 141.92 266.02C133.3 257.49 124.93 247.96 113.58 243.68C111.5 242.9 108.85 241.5 109.35 239.34C109.56 238.43 110.32 237.76 111.02 237.15C131.21 219.65 134.53 208.57 133.23 182.98L219.27 183.21L219.28 183.22Z" fill="#CCA692"/>
<path d="M169.68 63.31C174.76 64.68 181.65 58.14 184.93 55.47C190.88 50.63 197.63 46.78 204.84 44.14C210.11 42.21 215.91 40.93 221.31 42.46C229.24 44.71 234.48 52.69 235.95 60.81C238.95 77.34 230.64 94.45 233.3 111.01C233.67 113.33 234.31 118.58 238 116.05C239.53 115 238.56 112.16 240.19 110.91C243.81 108.13 245.58 112.56 245.86 115.24C246.87 124.77 245.93 135.28 241.82 144.18C239.44 149.33 235.84 150.95 232.35 154.77C228.48 159 229.56 166.86 228.29 171.96C227.43 175.43 226.03 178.62 224.05 181.45C219.83 187.49 212.12 190.59 207.22 196.13C202.63 201.32 198.4 206.48 191.91 210.01C188 212.14 182.41 212.45 177.25 212.48C176.58 212.55 175.9 212.61 175.22 212.66L167.62 62.88C168.31 63.04 169.02 63.16 169.68 63.34V63.31Z" fill="#F9CFB3"/>
<path d="M99.15 122.67C99.16 119.98 100.47 115.39 104.36 117.79C106.12 118.87 105.43 121.8 107.06 122.69C110.99 124.83 111.09 119.54 111.22 117.2C111.74 108.29 107.03 100 107.73 91.23C108.37 83.19 107.55 74.93 110.08 67.04C112.27 60.21 116.61 53.92 122.78 50.25C128.48 46.86 135.58 45.9 141.97 47.67C147.6 49.23 151.5 52.63 155.29 56.87C159.41 61.49 161.36 61.44 167.62 62.85L175.22 212.63C170.68 212.98 165.98 212.98 162.41 211.48C155.59 208.63 150.86 203.93 145.77 199.23C140.34 194.22 132.35 191.9 127.54 186.33C125.29 183.72 123.57 180.68 122.36 177.32C120.59 172.37 120.86 164.44 116.58 160.63C112.72 157.19 108.98 155.94 106.09 151.05C101.1 142.62 99.11 132.26 99.14 122.67H99.15Z" fill="#E2BBA1"/>
<path d="M241.68 104.05C240.23 110.81 238.58 117.19 237.2 122.72C236.56 125.27 236 128.12 235.19 130.56C234.83 131.63 234.79 132.56 234 133.5C233.81 133.72 230.94 135.68 230.99 135.16C231.95 125.58 233 116.48 231.97 106.87C230.2 90.32 233.29 63.29 209.69 64.21C202.61 64.49 195.89 67.22 189.2 69.56C182.51 71.9 175.38 73.9 168.4 72.64C157.42 70.66 148.86 61 137.79 59.62C120.73 57.5 114.3 72.47 113.41 86.47C112.8 96.03 111.85 104.74 112.63 114.51C112.92 118.21 114.21 121.48 114.7 125.12C114.91 126.66 117.43 137.42 116.63 138.13C116.02 138.67 115.16 137.84 114.78 137.12C101.84 112.32 93.3099 78.33 108.78 51.6C111.88 46.25 116.42 41.9 120.89 37.63C133.53 25.57 146.18 13.5 158.82 1.44C159.23 1.05 159.64 0.659997 160.13 0.389997C162.5 -0.890003 165.23 1.13 167.3 2.86C189.16 21.16 220.51 22.94 238.09 48.01C248.22 62.45 245.79 84.78 241.69 104.04L241.68 104.05Z" fill="#594A42"/>
<path d="M144.31 330.18C144.75 332.23 145.25 334.27 145.7 336.32H196.84C202.88 323.87 208.4 311.29 215.21 298.95C222.61 285.45 232.92 273.74 239.44 259.71C242.25 253.68 244.91 246.69 243.69 239.93C242.02 230.62 228.34 226.97 228.34 226.97C223.29 231.76 207.36 245.58 182.88 247.75C148.16 250.84 124.7 227.95 121.35 224.57C120.26 235.6 120.38 247.84 124.76 258.19C134.67 281.61 139.13 305.96 144.31 330.18Z" fill="#CAD9E0"/>
<path d="M55.36 277.89C55.86 297.38 56.89 316.85 57.71 336.33H155.23L138.16 283.3C138.16 283.3 122.36 224.19 121.35 224.57C112.78 227.75 111.91 229.77 104.26 233.76C95.32 238.42 85.63 241.25 75.69 243.22C69.54 244.44 43.3701 252.74 40.7901 259.52C38.6601 265.14 55.21 271.75 55.36 277.89Z" fill="#329B39"/>
<path d="M277.67 336.33C280.07 308.12 284.85 279.82 287.77 252.38C278.63 248.58 269.35 241.11 259.15 238.17C252.97 236.39 225.81 225.64 225.81 225.64C225.81 225.64 204.16 290.76 197.94 305.95C196.12 310.38 190.91 322.14 184.94 336.32H277.67V336.33Z" fill="#329B39"/>
<path d="M184.94 114.5V126.3C184.94 126.3 205.25 115.01 224.28 114.5C224.28 107.32 184.94 114.5 184.94 114.5Z" fill="#594A42"/>
<path d="M162.23 114.5V126.3C162.23 126.3 141.92 115.01 122.89 114.5C122.89 107.32 162.23 114.5 162.23 114.5Z" fill="#594A42"/>
<path d="M226.5 170.37C226.65 171.21 226.25 172.03 225.86 172.79C224.91 174.63 224.02 176.39 222.75 177.92C221.55 179.37 220.89 181.34 219.92 182.99C217.92 186.4 215.24 189.94 212.04 192.25C204.23 198.11 195.82 203.7 187.13 208.05C185.81 208.71 184.4 209.39 182.93 209.27C178.83 208.94 176.21 198.42 172.44 205.28C171.64 206.74 171.14 208.47 169.79 209.45C162.69 214.61 147.47 200.29 142.33 196.51C139.9 194.73 137.49 192.9 135.41 190.73C133.46 188.69 131.82 186.37 130.18 184.07C127.04 179.63 123.79 174.93 123.21 169.52C122.85 173.17 122.52 177 123.94 180.39C124.33 181.33 124.85 182.2 125.36 183.07C129.24 189.65 132.84 196.49 138.8 201.5C144.32 206.14 150.82 209.41 156.62 213.65C161.2 217 167.21 219.35 173.4 220.27C179.51 219.36 185.58 216.97 190.31 213.52C196.43 209.06 203.44 205.5 209.57 200.41C211.79 198.57 213.72 196.42 215.53 194.19C217.24 192.09 219.45 189.87 220.68 187.45C221.7 185.43 222.59 183.46 223.72 181.47C225.66 178.05 227.23 174.49 226.49 170.39L226.5 170.37Z" fill="#594A42"/>
<path d="M75.28 336.33C75.33 334.38 75.48 332.44 75.48 330.49C75.48 314.89 71.57 299.79 68.12 284.69C66.66 278.3 65.3301 271.73 65.9301 265.14C66.4601 259.36 70.13 253.52 69.42 247.68C69.36 247.15 69.22 246.58 68.79 246.26C68.22 245.85 67.43 246.08 66.78 246.33C64.39 247.24 61.92 248.18 59.38 249.17C48.14 253.55 32.6 256.93 25.08 267.28C14.83 281.38 8.74002 304.87 4.65002 321.52C3.42002 326.5 2.19997 331.39 0.969971 336.33H75.28Z" fill="#329B39"/>
<path d="M279.58 278.5C278.54 297.8 276.48 317.04 275.32 336.33H336.63C332.8 321.22 329.06 306.18 325.65 291.45C321.46 273.39 308.13 252.7 287.55 252.91C273.29 253.06 280.11 268.96 279.59 278.5H279.58Z" fill="#329B39"/>
</svg>
