<svg width="335" height="338" viewBox="0 0 335 338" fill="none" xmlns="http://www.w3.org/2000/svg">
<path d="M127.38 178.13V182.16V215.42L171.29 255.73L185.29 239.89L207.99 214.22V173.32L127.38 178.13Z" fill="#DEB09D"/>
<path d="M238.26 108.36C238.12 105.55 236.61 100.81 232.94 103.53C231.28 104.76 232.09 107.78 230.55 108.8C226.82 111.25 226.46 105.72 226.21 103.28C225.27 93.98 229.45 85.05 228.34 75.91C226.79 63.17 214.89 54.54 203.7 50.22C192.59 45.94 177.89 45.99 166.49 49.96C165.88 49.75 165.23 49.59 164.6 49.4V206.56C165.23 206.54 165.87 206.54 166.49 206.5C171.53 206.75 177 206.71 180.93 204.69C187.44 201.35 191.82 196.17 196.56 190.98C201.61 185.44 209.29 182.6 213.71 176.51C215.78 173.66 217.31 170.39 218.32 166.8C219.8 161.53 219.15 153.24 223.13 149.02C226.73 145.21 230.32 143.71 232.9 138.44C237.35 129.35 238.79 118.4 238.27 108.36H238.26Z" fill="#F9CFB3"/>
<path d="M129.27 50.21C118.08 54.53 106.18 63.16 104.63 75.9C103.52 85.04 107.7 93.97 106.76 103.27C106.51 105.72 106.15 111.25 102.42 108.79C100.87 107.77 101.69 104.75 100.03 103.52C96.3601 100.8 94.8501 105.54 94.7101 108.35C94.2001 118.39 95.6401 129.34 100.08 138.43C102.66 143.7 106.25 145.2 109.85 149.01C113.84 153.23 113.18 161.52 114.66 166.79C115.67 170.38 117.2 173.65 119.27 176.5C123.69 182.59 131.37 185.44 136.42 190.97C141.16 196.16 145.54 201.34 152.05 204.68C155.49 206.45 160.11 206.67 164.59 206.54V49.38C153.48 46.01 139.78 46.14 129.27 50.19V50.21Z" fill="#E2BBA1"/>
<path d="M99.5403 95.77C101.06 101.03 101.29 104.95 101.1 110.24C101.07 110.94 101.02 112.01 101.04 113.17H107.74C107.81 111.76 107.74 110.44 107.7 109.62C107.5 105.77 107.64 102.72 107.84 98.88C108.11 93.74 107.47 88.45 107.99 83.34C109.34 69.9 120.83 60.43 133.6 59.42C142.97 58.69 152.37 60.62 161.77 60.63C173.38 60.66 178.62 55.06 187.77 49.36C190.22 47.83 188.77 47.64 191.32 48.29C192.98 48.71 195.11 50.98 196.55 51.86C205.24 57.19 220.87 62.47 223.38 73.7C225.35 82.53 224.95 91.56 224.71 100.54C224.68 101.81 223.59 108.65 223.86 113.16H229.09C230.76 107.74 233 100.37 233.55 97.52C235.76 86.12 235.23 81.1 235.77 76.24C237.66 59.04 238.61 42.56 228 28.13C216.64 12.68 199.82 3.64996 190.84 4.79996C190.32 4.85996 184.25 5.40995 185.02 6.09995C181.82 3.20995 176.2 3.00998 172.24 2.06998C151.15 -2.96002 124.47 10.1499 109.15 24.1599C92.9703 38.9499 95.3603 57.98 97.2003 76.25C97.8403 82.62 97.7803 89.68 99.5503 95.76L99.5403 95.77Z" fill="black"/>
<path d="M187.85 337.3L207.98 283.45L170.98 242.16H166C166 242.16 127.1 283.04 127.37 286L148.73 337.3H187.84H187.85Z" fill="#BAD1DD"/>
<path d="M147.37 329.34C147.3 329.64 147.32 329.96 147.43 330.24L150.18 337.3H185.06L187.81 330.24C187.92 329.95 187.94 329.64 187.87 329.34L174.71 269.62C174.29 267.73 174.56 265.74 175.47 264.03L180.46 254.64C180.68 254.07 180.55 253.43 180.12 253C178.2 251.09 176.27 249.17 174.35 247.27C173.05 245.97 171.47 244.75 170.71 243.05C170.17 241.83 168.68 239.1 166.94 240.26C165.43 241.28 164.92 242.87 163.93 244.22C162.95 245.56 161.42 246.72 160.24 247.89C158.52 249.59 156.81 251.3 155.09 253.01C154.66 253.44 154.52 254.08 154.75 254.65L159.75 264.04C160.66 265.76 160.93 267.74 160.52 269.63L147.36 329.35L147.37 329.34Z" fill="#3D5872"/>
<path d="M156.74 337.3L135.17 265.68L122.5 223.57C122.5 223.57 122.03 223.72 121.15 223.99C117.97 224.93 109.51 227.49 98.78 230.71C69.97 239.45 25.03 253.08 23.82 253.89C22.79 254.59 11.97 276.45 3.05 294.72C1.2 298.5 0.25 302.65 0.25 306.85V337.3H156.75H156.74Z" fill="#78919E"/>
<path d="M334.25 337.3V307.91C334.25 301.94 332.88 296.05 330.26 290.68C321.79 273.38 312.41 254.54 311.46 253.89C310.23 253.08 265.3 239.44 236.48 230.71C225.8 227.49 217.31 224.95 214.14 223.99C213.23 223.72 212.76 223.57 212.76 223.57L195.07 280.56L177.47 337.29H334.26L334.25 337.3Z" fill="#6A828C"/>
<path d="M208.6 202.81L168.7 238.81C168.09 239.36 167.17 239.36 166.56 238.81L126.66 202.81L117.74 228.94L134.98 286.01L166.32 241.92C166.96 241.02 168.3 241.02 168.93 241.92L200.27 286.01L217.51 228.94L208.59 202.81H208.6Z" fill="#E4F4FF"/>
<path d="M204.3 337.3L240.24 269.25L219.3 260.41L243.37 248.58C242.19 244.91 239.6 237.45 236.48 230.71C225.8 227.49 217.31 224.95 214.14 223.99L195.07 280.57L188.94 298.78L175.84 337.3H204.31H204.3Z" fill="#64787D"/>
<path d="M95.0301 269.25L130.42 337.3H158.03L146.31 298.78L135.16 265.68L121.13 223.99C117.95 224.93 109.49 227.49 98.7601 230.71C95.6601 237.45 93.0501 244.91 91.8701 248.58L115.94 260.41L95.0201 269.25H95.0301Z" fill="#64787D"/>
</svg>
