<svg width="321" height="338" viewBox="0 0 321 338" fill="none" xmlns="http://www.w3.org/2000/svg">
<path d="M152.31 337.3C149.4 334.72 146.34 332.12 143.04 329.52C131.58 320.47 120.53 313.64 110.87 308.51C110.87 308.51 128.3 283.48 126.33 283.48L89.88 289.61C89.88 289.61 87.63 288.4 88.97 261.58C93.48 241.33 103.5 229.31 111.46 222.66C110.16 223.1 63.25 242.24 38.46 249.94C25.79 253.88 12.37 258.46 6.52002 271.61C4.22002 276.78 4.45005 284.6 3.80005 290.17C1.96005 305.81 0.989941 321.56 0.189941 337.29H152.31V337.3Z" fill="#0059F8"/>
<path d="M170.3 334.65C170.3 334.65 109.66 263.14 118.6 234.99C122.51 223.89 122.7 215.31 122.7 215.31C122.7 215.31 121.17 215.92 118.79 217.3C116.73 218.45 113.82 220.3 110.55 223.05C110.55 223.05 110.53 223.05 110.51 223.07C102.43 229.9 92.2399 242.25 87.6599 263.08C86.2999 290.64 88.5899 291.89 88.5899 291.89L125.62 285.59C122.34 291.8 107.71 311.24 107.71 311.24C117.54 316.51 130.96 323.61 142.6 332.91C144.44 334.38 146.1 335.84 147.82 337.31H169.36C169.36 337.31 169.26 337.19 169.21 337.14L170.29 334.66L170.3 334.65Z" fill="#5590FA"/>
<path d="M320.65 337.3C320.13 330.31 319.58 323.29 318.95 316.18C317.22 296.53 317.37 272.57 304.54 256.12C295.22 244.16 279.28 241.54 265.59 237.36C249.26 232.38 232.94 227.4 216.61 222.42C225.73 230.55 235.76 247.91 236.01 285.04C225.45 287.08 207.46 288.33 202.29 286.22C206.78 290.03 220.81 302.91 220.81 302.92C220.18 302.34 206.61 311.88 205.92 312.6C196.3 322.57 173.67 322.39 167.19 334.65C166.97 335.07 166.66 336.05 166.31 337.31H320.66L320.65 337.3Z" fill="#5590FA"/>
<path d="M121.61 187.15C121.56 187.17 121.5 187.17 121.48 187.19C121.43 187.21 121.39 187.21 121.39 187.21C121.39 187.21 121.82 189.62 122.23 193.45C123.34 203.34 124.32 222.75 117.56 234.99C124.2 249.83 128.11 263.99 159.12 264.94V180.93C141.48 182.85 123.72 186.7 121.6 187.16L121.61 187.15Z" fill="#ECA982"/>
<path d="M196.16 189.89C196.11 189.26 196.07 188.62 196.05 187.99C196.01 187.72 196.01 187.47 195.99 187.21C195.66 179.03 177.46 178.93 159.13 180.92V264.93C163.6 265.07 168.64 264.93 174.33 264.48C193.99 260.01 204.72 250.18 210.97 231.41C203.36 222.52 197.33 205.72 196.15 189.88L196.16 189.89Z" fill="#DE9F7A"/>
<path d="M121.61 187.15C121.56 187.17 121.5 187.17 121.48 187.19C121.43 187.21 121.39 187.21 121.39 187.21C121.39 187.21 140.75 215.04 159.12 216.2V180.92C141.48 182.84 123.72 186.69 121.6 187.15H121.61Z" fill="#CE9174"/>
<path d="M195.99 187.21C195.66 179.03 177.46 178.93 159.13 180.92V216.2C159.88 216.25 160.62 216.27 161.37 216.22C173.81 214.84 188.13 200.5 196.05 187.99C196.01 187.72 196.01 187.47 195.99 187.21Z" fill="#C0876C"/>
<path d="M181.92 260.91C172.67 264.37 164.36 264.07 159.13 263.38C157.44 263.16 156.07 262.89 155.11 262.7C132.03 258.07 120 239.03 117.57 234.99C111.08 255.43 141.81 298.71 159.13 320.9C165.67 329.27 170.3 334.65 170.3 334.65L196.33 286.35C196.83 285.42 197.31 284.49 197.79 283.54C205.85 267.6 210.28 250.02 210.43 232.15C209.06 235.62 201.42 253.62 181.92 260.91Z" fill="#CAD9E0"/>
<path d="M226.15 303.84C226.15 303.84 211.68 294.55 205.8 289.31C213.03 290.42 227.98 289.23 237.28 287.43C237.06 254.27 229.21 236.59 221.04 227.15C219.57 225.32 218.08 223.74 216.61 222.43C208.96 215.61 201.92 215.32 201.92 215.32C201.92 215.32 203.84 221.98 209.44 231.75C209.42 231.89 210.45 232.04 210.45 232.16C210.31 250.04 205.87 267.61 197.81 283.55C197.33 284.5 196.84 285.43 196.35 286.36L163.58 332.27C162.82 333.85 162.07 335.55 161.32 337.31H174.47C190.43 321.25 225.85 304.07 226.17 303.84H226.15Z" fill="#0059F8"/>
<path d="M159.33 0.97998C159.27 0.97998 159.2 0.98999 159.13 0.98999V1.04999C159.19 1.02999 159.26 0.999971 159.33 0.969971V0.97998Z" fill="#0059F8"/>
<path d="M207.15 19.42C202.94 16.9 198.41 14.84 193.66 13.36C182.46 9.86999 170.91 5.29999 159.14 5.17999V66.91C159.48 66.91 159.8 66.95 160.14 66.95C166.85 66.97 172.57 68.41 178.64 71.19C181.2 72.37 183.93 74.52 186.7 74.48C185.93 73.32 184.98 72.14 183.91 71.19C188.04 74.07 193.54 75.87 197.71 78.73C204.29 83.27 211.42 90.96 213.43 98.92C215.95 108.89 210.85 119.46 213.23 129.59C213.96 126.87 217.41 121.9 220.04 119.51C218.45 121.26 224.54 120.8 224.79 120.72C226.22 120.31 227.13 119.65 227.81 118.77C228.88 117.37 229.32 115.46 230.1 113.2C232.82 105.46 234.64 97.22 234.39 88.98C234.71 89.35 235.45 90.18 236.2 91.14C237.52 92.82 238.97 94.93 238.7 95.86C247.4 66.77 232.6 34.56 207.15 19.42Z" fill="#393B42"/>
<path d="M148.34 6.46002C151.72 4.25002 155.35 2.43999 159.14 1.04999V0.98999C151.72 1.29999 144.35 2.60001 137.29 4.89001C133.34 6.18001 129.44 7.79998 126.15 10.35C122 13.55 119.34 18.59 117.73 23.49C114.3 21.99 106.09 23.92 102.54 25.46C93.6402 29.3 89.3602 36.88 83.3602 43.85C81.0302 46.57 79.1202 49.05 77.6402 51.66C75.3902 55.54 74.0301 59.68 73.4401 65.28C72.7201 72 73.1303 78.79 73.5503 85.53C74.6103 82.06 76.2702 78.65 78.6102 75.88C78.7702 78.95 76.9302 81.3 76.2902 84.2C75.4902 87.9 76.1102 92.03 76.8602 95.67C78.4202 103.21 81.7801 110.72 86.5701 116.78C87.2301 117.64 88.0603 118.5 88.9303 119.37C89.6603 120.09 90.4302 120.8 91.2302 121.54C95.7002 125.65 100.94 130.14 101.49 135.21C100.33 124.7 97.0401 115.44 97.6901 105.54C97.7801 104.11 97.9702 102.67 98.2402 101.2C98.6702 98.95 99.3102 96.66 100.28 94.3C100.71 95.6 101.49 96.98 101.85 98.29C102.37 85.17 109.7 81.18 117.1 71.87C120.44 67.67 125.07 64.45 126.11 58.86C129.94 63.76 133.76 61.99 138.98 63.15C146.04 64.72 151.85 66.75 159.14 66.94V5.21002C155.56 5.17002 151.96 5.53999 148.34 6.48999V6.46002Z" fill="#414244"/>
<path d="M221.16 118.64C217.79 120.61 214.31 125.58 213.21 129.6C210.85 119.46 215.93 108.9 213.41 98.9301C211.4 90.9701 204.27 83.28 197.7 78.75C193.53 75.88 188.03 74.08 183.9 71.2C184.98 72.16 185.91 73.34 186.68 74.5C183.91 74.54 181.18 72.39 178.62 71.22C172.55 68.44 166.83 66.99 160.12 66.97C159.78 66.97 159.46 66.94 159.13 66.94V207.33C168.37 207.27 169.19 205.4 173.29 202.41C178.19 198.82 183.47 196.37 188.81 193.46C191.1 192.22 192.83 190.85 194.31 189.28C196.26 187.2 197.73 184.76 199.27 181.69C200.85 178.55 206.92 165.45 209.35 162.38C209.19 162.59 212.34 163.5 212.63 163.52C213.89 163.64 215.34 163.47 216.48 162.87C218.47 161.83 220.03 159.38 221.13 157.49C223.79 152.92 224.73 147.62 226.62 142.73C228.66 137.42 232.35 132.11 232.2 126.2C232.04 120.09 226.96 115.27 221.17 118.66L221.16 118.64Z" fill="#EBB39A"/>
<path d="M138.97 63.13C133.75 61.98 129.93 63.73 126.09 58.83C125.05 64.42 120.43 67.65 117.08 71.85C109.68 81.15 102.35 85.14 101.83 98.27C101.47 96.96 100.69 95.58 100.26 94.27C99.2904 96.64 98.6503 98.9299 98.2203 101.19C98.1803 102.67 98.0004 104.12 97.6704 105.53C97.0304 115.42 100.3 124.69 101.47 135.2C100.81 129.24 93.6704 124.06 88.9104 119.36C88.5104 119.7 88.1103 120.03 87.7003 120.35C87.2703 120.68 86.9003 121.05 86.6103 121.46C82.4103 127.39 88.6904 137.32 90.7704 142.71C92.4404 147.03 93.3504 151.63 95.3804 155.82C96.2504 157.62 97.3604 159.54 98.4904 161.18C99.5704 162.74 102.38 163.22 104.16 162.97C105.1 162.83 106.02 162.36 106.5 161.55C109.74 168.86 114.51 174.51 118.11 181.68C120.73 186.89 123.12 190.32 128.08 193.16C128.25 193.26 128.39 193.36 128.57 193.45C133.92 196.36 139.19 198.81 144.1 202.4C148.26 205.45 148.11 207.33 158.69 207.33C158.85 207.33 158.98 207.33 159.13 207.33V66.94C151.84 66.75 146.02 64.71 138.97 63.15V63.13Z" fill="#F9BDA3"/>
<path d="M102.12 145.73C102.46 148.02 102.48 150.89 99.8602 151.54C99.1302 151.72 98.3302 151.46 97.7502 150.91C95.4602 148.74 95.8102 145.56 96.4502 142.77C96.9202 140.68 97.5503 138.54 97.2903 136.4C96.7803 132.3 92.1503 128.25 88.5503 129.97C89.4903 129.52 89.8603 128.63 91.1503 128.36C92.7603 128.01 93.5302 128.22 95.2102 129.22C95.8202 129.59 96.4103 130.03 96.9003 130.59C100.39 134.62 101.33 140.41 102.13 145.74L102.12 145.73Z" fill="#C0876C"/>
<path d="M214.06 146.62C213.72 148.91 213.7 151.77 216.31 152.42C217.05 152.61 217.84 152.35 218.42 151.79C220.7 149.61 220.36 146.44 219.72 143.65C219.24 141.56 218.61 139.43 218.88 137.29C219.39 133.19 224.02 129.14 227.62 130.86C226.68 130.41 226.31 129.52 225.02 129.24C223.41 128.9 222.64 129.1 220.96 130.1C220.35 130.47 219.75 130.91 219.27 131.47C215.78 135.5 214.84 141.29 214.05 146.62H214.06Z" fill="#C0876C"/>
<path d="M219.14 115.21C218.85 114.86 195.03 105.59 164.78 116.77C161.94 117.17 159.27 117.3 157.8 117.34C157.75 117.34 157.7 117.34 157.65 117.34C156.15 117.29 153.56 117.15 150.81 116.77C121.14 106.53 96.74 114.86 96.45 115.21C94.79 117.23 96.44 120.16 96.45 120.18C96.5 120.28 97.75 120.59 97.91 120.66C99.11 121.21 101.04 122.15 101.62 123.33C102.22 124.56 102.04 126.58 102.25 127.94C102.64 130.49 103.11 133.05 103.96 135.51C105.05 138.68 107.12 142.22 110.27 144.1C116.85 148.01 130.38 147.19 137.23 145.5C144.8 143.15 151.53 129.5 152.24 125.19C152.74 122.54 155.83 121.95 157.65 121.83C157.7 121.83 157.75 121.83 157.8 121.82C159.6 121.92 162.85 122.48 163.36 125.2C164.08 129.51 170.8 143.16 178.37 145.51C185.23 147.2 198.76 148.02 205.34 144.11C208.5 142.24 210.56 138.7 211.65 135.52C212.5 133.06 212.97 130.5 213.36 127.95C213.57 126.59 213.38 124.57 213.99 123.34C214.57 122.15 216.49 121.21 217.7 120.67C217.86 120.6 219.11 120.28 219.16 120.19C219.16 120.17 220.81 117.24 219.16 115.22L219.14 115.21ZM125.06 142.65C120.69 142.17 114.94 141.28 112.03 137.91C110.81 136.5 110.12 134.79 109.61 133.07C108.73 130.1 107.89 125.6 109.17 122.23C109.57 121.19 110.16 120.25 111.03 119.51C114.47 116.55 120.38 116.33 124.79 116.44C134.87 116.71 144.59 117.9 145.36 125.05C145.11 129.28 141.32 144.42 125.05 142.64L125.06 142.65ZM205.98 133.07C205.47 134.79 204.78 136.5 203.56 137.91C200.65 141.28 194.91 142.17 190.53 142.65C174.26 144.43 170.47 129.29 170.22 125.06C170.99 117.91 180.71 116.72 190.79 116.45C195.2 116.34 201.11 116.56 204.55 119.52C205.42 120.26 206.01 121.2 206.41 122.24C207.7 125.61 206.85 130.12 205.97 133.08L205.98 133.07Z" fill="#231F20"/>
</svg>
