<svg width="339" height="337" viewBox="0 0 339 337" fill="none" xmlns="http://www.w3.org/2000/svg">
<path d="M114.64 119.95C115.23 116.79 113.3 111.46 112.12 108.56C111.77 107.69 111.38 106.73 110.9 105.82C110.17 104.45 109.2 103.21 107.78 102.64C101.7 100.19 95.9703 108.6 95.4703 113.68C95.3503 114.9 95.3503 116.17 95.4303 117.46C95.5103 120.12 96.1103 122.66 96.9703 125.1C97.4003 126.32 97.8903 127.52 98.4403 128.72C104.43 136.78 104.43 154.16 117.46 145.47C121.8 141.13 117.46 128.1 114.62 123.75C114.41 122.57 114.38 121.31 114.64 119.96V119.95Z" fill="#F0D09F"/>
<path d="M230.71 102.63C229.29 103.2 228.32 104.44 227.59 105.81C227.1 106.72 226.72 107.68 226.37 108.55C225.19 111.45 223.27 116.78 223.86 119.94C224.11 121.29 224.08 122.55 223.88 123.73C221.04 128.08 216.7 141.11 221.04 145.45C234.07 154.14 234.07 136.76 240.06 128.7C240.61 127.51 241.1 126.31 241.53 125.08C242.39 122.64 242.99 120.1 243.07 117.44C243.15 116.15 243.15 114.88 243.03 113.66C242.53 108.58 236.79 100.17 230.72 102.62L230.71 102.63Z" fill="#E2B477"/>
<path d="M206.82 181.22C206.76 181.28 206.69 181.33 206.64 181.39C205.35 182.75 204.03 184.13 202.63 185.49C194.24 193.62 183.95 201.16 173.59 202.99C172.86 203.12 171.05 203.18 169.25 203.18C168.1 203.18 166.98 203.15 166.11 203.1V270.48C166.82 270.43 167.49 270.44 168.24 270.33C168.63 270.39 170.03 270.39 170.41 270.33C192.48 273.36 192.71 250.2 209.71 230.77C208.27 221.06 206.98 210.92 205.91 200.37C204.96 191.02 206.72 188.61 206.81 181.22H206.82Z" fill="#D2A965"/>
<path d="M135.44 185.07C134.19 183.84 133.01 182.6 131.85 181.37C131.8 181.32 131.74 181.27 131.69 181.22C131.16 189.98 133.04 191.01 132.08 200.37C131.01 210.92 129.72 221.06 128.28 230.77C144.7 249.53 146.14 271.71 166.11 270.48V203.1C165.62 203.07 165.18 203.04 164.91 202.99C154.36 201.12 143.9 193.36 135.43 185.07H135.44Z" fill="#E2B477"/>
<path d="M109.61 75.52C109.03 78.91 108.68 82.43 108.6 86.03C106.89 98.38 110.01 133.17 110.03 133.9C110.34 149.57 117.04 164.2 127.1 176.1C128.55 177.81 130.16 179.59 131.85 181.38C133.01 182.62 134.19 183.85 135.44 185.08C143.9 193.37 154.37 201.13 164.92 203C165.18 203.05 165.62 203.08 166.12 203.11V36.71C131.38 38.98 114.57 46.69 109.62 75.53L109.61 75.52Z" fill="#F0D09F"/>
<path d="M228.89 75.52C223.79 45.8 206.17 38.52 169.25 36.49C168.17 36.55 167.16 36.63 166.11 36.7V203.1C166.98 203.15 168.1 203.18 169.25 203.18C171.05 203.18 172.85 203.12 173.59 202.99C183.96 201.15 194.25 193.62 202.63 185.49C204.03 184.13 205.35 182.76 206.64 181.39C208.33 179.59 209.95 177.8 211.41 176.08C221.48 164.19 228.17 149.55 228.48 133.88C228.49 133.15 231.61 98.36 229.91 86.01C229.83 82.41 229.48 78.9 228.9 75.5L228.89 75.52Z" fill="#E2B477"/>
<path d="M169.1 336.7L169.07 262.77C169.07 262.77 158.95 284.44 147.35 278.67L129.45 233.98L113.68 241.23L95.3502 249.7L89.7002 251.44L74.7102 256.13L36.6202 267.94C32.3202 269.29 28.4502 271.68 25.3702 274.93L10.7302 290.44C7.30021 294.09 4.95022 298.61 4.04022 303.55C3.08022 308.69 1.68021 327.44 -0.0297852 336.7H169.07H169.1Z" fill="#9AC1E1"/>
<path d="M169.1 336.7L169.07 262.77C169.07 262.77 144.1 265.98 138.58 272.86L129.46 233.98L113.69 241.23L95.3605 249.7L89.7104 251.44C92.0704 268.6 97.2004 308.98 107.25 336.7H169.09H169.1Z" fill="#9AC1E1"/>
<path d="M77.21 292.03C77.3 294.2 77.34 296.38 77.38 298.64C77.47 304.68 77.47 322.24 77.42 328.8C77.42 331.39 77.39 334.05 77.36 336.71H140.45C138.55 333.92 136.74 331.04 135.1 327.93C129.11 316.77 124.63 292.74 121.29 280.18C119.86 274.79 118.6 269.45 117.6 264.33C117.12 262.25 116.73 260.16 116.38 258.16C115.21 251.95 114.34 246.17 113.69 241.22L102.7 246.3L95.36 249.68L74.73 256.11C75.42 260.72 75.95 266.15 76.38 272.18C76.77 278.17 77.08 284.87 77.21 292.03Z" fill="#0A1638"/>
<path d="M129.18 224.5L108.08 242.86C112.04 250.71 117.07 259.43 123.46 268.53C131.8 280.4 140.39 289.97 148.07 297.49C148.07 297.49 153.86 274.33 169.06 262.79C145.9 254.88 129.17 224.5 129.17 224.5H129.18Z" fill="white"/>
<path d="M338.48 336.7C336.77 327.45 335.37 308.69 334.41 303.55C333.5 298.6 331.15 294.08 327.72 290.44L313.08 274.93C310 271.67 306.13 269.28 301.83 267.94L263.74 256.13L248.75 251.44L243.1 249.7L224.77 241.23L209 233.98L191.1 278.67C179.51 284.45 169.39 262.77 169.39 262.77L169.36 336.7H338.46H338.48Z" fill="#6C95D2"/>
<path d="M231.23 336.7C241.28 308.97 246.41 268.6 248.77 251.44L243.12 249.7L224.79 241.23L209.02 233.98L199.9 272.86C194.38 265.98 169.41 262.77 169.41 262.77L169.38 336.7H231.22H231.23Z" fill="#6C95D2"/>
<path d="M261.12 336.7C261.08 333.41 261.04 330.12 261.02 326.92C261.02 320.32 261.06 302.76 261.15 296.72C261.15 296.33 261.15 295.94 261.19 295.59C261.28 288.56 261.54 281.96 261.88 275.92C262.32 268.36 262.92 261.67 263.75 256.11L243.12 249.68L238.47 247.55L224.79 241.21C224.01 247.2 222.88 254.37 221.36 262.14L221.31 262.18C220.31 267.31 219.1 272.74 217.71 278.21C214.45 290.76 210.06 314.97 204.2 326.35C202.31 330.01 200.23 333.44 198.01 336.69H261.11L261.12 336.7Z" fill="#0A1638"/>
<path d="M169.07 262.78C184.27 274.31 190.06 297.48 190.06 297.48C197.74 289.96 206.34 280.39 214.67 268.52C221.06 259.42 226.09 250.7 230.05 242.85L209.05 224.49C209.05 224.49 192.23 254.86 169.07 262.78Z" fill="#8EB3EE"/>
<path d="M224.8 241.22C224.02 247.21 222.89 254.38 221.37 262.15L238.48 247.56L224.8 241.22Z" fill="#00328B"/>
<path d="M226.06 336.7L249.39 305.63L261.03 326.92C261.03 320.32 261.07 302.76 261.16 296.72L260.51 296.15L261.21 295.58C261.3 288.55 261.56 281.95 261.9 275.91L249.44 286.55L221.34 262.18C220.34 267.31 219.12 272.74 217.73 278.21L238.32 296.06L210.05 331.39L204.23 326.35C202.34 330.01 200.26 333.44 198.04 336.69H226.08L226.06 336.7Z" fill="#00328B"/>
<path d="M81.1201 295.42L77.3801 298.64C77.4701 304.68 77.4701 322.24 77.4201 328.8L92.1901 305.02L115.83 336.7H140.45C138.55 333.91 136.74 331.03 135.1 327.92L131.41 331.05L103.31 295.51L121.29 280.18C119.86 274.79 118.6 269.46 117.6 264.33L92.2401 285.96L76.3901 272.19C76.7801 278.18 77.0901 284.88 77.2201 292.04L81.1301 295.43L81.1201 295.42Z" fill="#00328B"/>
<path d="M108.71 28.6801C94.3703 45.4401 95.4103 63.13 99.7803 83.91C100.94 89.41 104 109.17 108.08 125.01C108.7 127.4 111.8 125.59 113.36 125.82C115.43 119.36 113.3 89.08 114.91 80.77C116.45 72.82 118.23 58.46 124.73 53.28C129.54 49.44 136.03 48.31 142.18 48.55C148.33 48.79 154.36 50.26 160.47 51.04C162.75 51.34 165.13 51.2901 167.56 51.0601V4.72998C164.89 4.87998 162.22 5.07997 159.57 5.33997C140.42 7.24997 121.5 13.7499 108.71 28.6899V28.6801Z" fill="#231F20"/>
<path d="M224.72 0.410035C206.12 4.95003 186.7 3.64998 167.55 4.72998V51.0601C179.04 49.9701 191.81 44.47 202.1 47.89C213.64 51.73 219.95 73.64 222.52 84.28C225.57 96.89 224.53 109.27 224.94 122.18C226.79 121.89 228.63 121.59 230.48 121.3C233.74 103.21 244.25 87.82 245.12 68.41C245.29 64.52 245.18 60.64 244.81 56.78C244.31 51.49 231.53 -1.24996 224.72 0.420045V0.410035Z" fill="black"/>
<path d="M107.54 104.85C105.87 106.88 107.53 109.85 107.54 109.86C107.6 109.96 108.86 110.28 109.02 110.35C110.24 110.91 112.19 111.85 112.77 113.05C113.37 114.3 113.19 116.33 113.4 117.71C113.79 120.28 114.27 122.87 115.13 125.36C116.24 128.56 118.33 132.13 121.52 134.03C128.18 137.98 142.16 137.46 149.1 135.75C156.75 133.38 163.26 119.29 163.98 114.93C164.48 112.26 167.61 111.66 169.45 111.54V107.02C167.93 106.97 165.32 106.83 162.53 106.44C133.06 93.7199 107.84 104.51 107.55 104.87L107.54 104.85ZM136.15 134.82C130.97 134.25 124.16 133.21 120.72 129.22C119.27 127.55 118.46 125.53 117.85 123.49C116.81 119.99 115.81 114.65 117.33 110.67C117.8 109.43 118.51 108.33 119.54 107.45C123.62 103.95 130.62 103.69 135.84 103.82C147.78 104.13 159.29 105.54 160.2 114.01C159.91 119.02 155.42 136.93 136.14 134.82H136.15Z" fill="#4C4B4B"/>
<path d="M176.65 106.43C173.78 106.83 171.08 106.97 169.59 107.01C169.54 107.01 169.49 107.01 169.44 107.01V111.53C169.44 111.53 169.54 111.53 169.59 111.53C171.41 111.63 174.69 112.19 175.21 114.93C175.93 119.29 182.44 133.38 190.09 135.75C197.02 137.46 211.01 137.99 217.67 134.03C220.86 132.14 222.95 128.57 224.06 125.36C224.92 122.88 225.4 120.29 225.79 117.71C226 116.33 225.82 114.29 226.42 113.05C227 111.85 228.95 110.91 230.17 110.35C230.33 110.28 231.59 109.96 231.65 109.86C231.65 109.85 233.32 106.88 231.65 104.85C231.36 104.49 206.14 93.7101 176.67 106.42L176.65 106.43ZM221.32 123.5C220.71 125.53 219.9 127.56 218.45 129.23C215.01 133.21 208.2 134.26 203.02 134.83C183.74 136.94 179.25 119.03 178.96 114.02C179.87 105.55 191.38 104.14 203.32 103.83C208.55 103.69 215.55 103.95 219.62 107.46C220.65 108.34 221.36 109.44 221.83 110.68C223.35 114.67 222.35 120 221.31 123.5H221.32Z" fill="#373434"/>
</svg>
