<svg width="356" height="337" viewBox="0 0 356 337" fill="none" xmlns="http://www.w3.org/2000/svg">
<path d="M231.62 174.69L231.83 178.74C232.94 200.64 229.38 213.76 246.63 229.68C253.68 236.19 260.95 244.67 259.36 254.14C257.87 263.01 248.93 268.82 240.16 270.78C231.38 272.75 222.19 272 213.35 273.68C203.02 275.63 193.19 280.86 182.69 280.45C169.88 279.96 158.98 271.24 149.86 262.22C140.75 253.2 131.9 243.13 119.9 238.61C117.71 237.78 114.9 236.31 115.43 234.02C115.65 233.06 116.45 232.35 117.19 231.71C138.53 213.21 142.04 201.49 140.67 174.45L231.62 174.7V174.69Z" fill="#CCA692"/>
<path d="M179.19 47.9301C184.56 49.3801 191.84 42.46 195.31 39.64C201.6 34.53 208.74 30.4501 216.35 27.6701C221.92 25.6301 228.05 24.28 233.76 25.89C242.15 28.27 247.68 36.7101 249.24 45.2901C252.41 62.7701 243.63 80.85 246.44 98.35C246.83 100.8 247.51 106.35 251.41 103.67C253.03 102.56 252 99.56 253.73 98.23C257.55 95.29 259.43 99.9801 259.72 102.81C260.79 112.89 259.79 123.99 255.45 133.4C252.94 138.85 249.13 140.56 245.44 144.59C241.35 149.06 242.49 157.37 241.15 162.76C240.24 166.42 238.76 169.8 236.67 172.78C232.21 179.16 224.06 182.45 218.88 188.3C214.03 193.79 209.56 199.24 202.7 202.97C198.56 205.22 192.65 205.56 187.2 205.58C186.49 205.65 185.77 205.71 185.06 205.77L177.03 47.45C177.76 47.61 178.5 47.7401 179.21 47.9301H179.19Z" fill="#F9CFB3"/>
<path d="M104.64 110.68C104.64 107.84 106.04 102.98 110.14 105.52C111.99 106.66 111.27 109.76 112.99 110.69C117.15 112.96 117.25 107.36 117.39 104.89C117.93 95.47 112.96 86.6999 113.7 77.4399C114.37 68.9499 113.51 60.21 116.19 51.88C118.51 44.66 123.09 38.01 129.61 34.13C135.64 30.54 143.14 29.54 149.9 31.4C155.85 33.05 159.98 36.64 163.98 41.12C168.34 46 170.4 45.9499 177.01 47.4499L185.04 205.77C180.24 206.14 175.27 206.13 171.5 204.55C164.3 201.53 159.3 196.57 153.92 191.6C148.18 186.3 139.74 183.85 134.65 177.96C132.27 175.2 130.45 171.99 129.17 168.44C127.29 163.21 127.58 154.83 123.07 150.79C118.99 147.15 115.03 145.83 111.98 140.67C106.71 131.76 104.6 120.8 104.64 110.67V110.68Z" fill="#E2BBA1"/>
<path d="M255.3 91C253.77 98.15 252.03 104.89 250.56 110.73C249.88 113.42 249.3 116.43 248.44 119.01C248.06 120.14 248.02 121.13 247.18 122.12C246.99 122.35 243.95 124.43 244 123.88C245.02 113.75 246.12 104.14 245.04 93.97C243.41 78.72 247.31 39.76 224.17 37.89C215.86 37.22 209.15 44.08 201.73 47.89C193.26 52.23 183.12 52.6301 173.89 50.3101C160.75 47.0201 135.92 23.6701 124.34 41.6701C123.08 43.6301 122.29 45.85 121.65 48.09C119.14 56.79 120.33 64.84 119.63 73.62C118.88 83.06 118.13 92.5901 118.88 102.05C119.19 105.96 120.55 109.42 121.07 113.26C121.29 114.88 123.96 126.26 123.1 127.01C122.46 127.59 121.55 126.71 121.15 125.94C107.47 99.72 98.45 63.8001 114.81 35.5401C129.47 10.2101 164.67 -0.0200055 192.02 0.349995C197.35 0.419995 202.75 0.840073 207.75 2.68007C215.78 5.63007 223.24 10.4 231.13 13.5C244.48 18.74 251.52 32.7001 254.53 45.9301C256.06 52.6401 256.38 59.51 257.82 66.21C259.62 74.6 257.06 82.69 255.29 90.97L255.3 91Z" fill="#728D96"/>
<path d="M152.37 330.03C152.83 332.2 153.36 334.36 153.84 336.53H207.89C214.28 323.37 220.11 310.07 227.3 297.03C235.13 282.76 246.03 270.38 252.92 255.55C255.88 249.17 258.7 241.79 257.41 234.63C255.64 224.79 241.19 220.94 241.19 220.94C235.84 225.99 219.01 240.61 193.14 242.91C156.44 246.17 131.64 221.98 128.1 218.41C126.95 230.07 127.08 243.01 131.71 253.95C142.18 278.71 146.9 304.44 152.37 330.05V330.03Z" fill="#414042"/>
<path d="M195.31 102.04V114.51C195.31 114.51 216.78 102.58 236.9 102.04C236.9 94.4501 195.31 102.04 195.31 102.04Z" fill="#728D96"/>
<path d="M171.31 102.04V114.51C171.31 114.51 149.84 102.58 129.72 102.04C129.72 94.4501 171.31 102.04 171.31 102.04Z" fill="#728D96"/>
<path d="M233.02 173.97C230.29 177.3 227.42 181.64 223.97 184.22C215.72 190.41 206.82 196.32 197.64 200.92C196.25 201.62 194.76 202.34 193.2 202.21C188.87 201.87 186.09 190.74 182.12 197.99C181.27 199.53 180.75 201.37 179.32 202.4C171.81 207.85 155.73 192.71 150.29 188.72C147.73 186.84 145.18 184.9 142.98 182.61C136.62 175.96 133.35 167.45 128.07 160.09C126.52 167.65 131.12 173.85 134.61 180.29C135.79 182.47 136.97 184.65 138.4 186.67C144.88 195.81 156.54 200.36 165.38 206.83C170.22 210.37 176.58 212.86 183.12 213.83C189.58 212.86 196 210.34 200.99 206.7L221.34 192.85C223.68 190.9 225.73 188.64 227.64 186.27C230.93 182.22 234.82 178.55 237.97 174.42C240.88 170.61 241.5 165.03 241.37 160.39C239.01 165.17 236.37 169.84 232.99 173.97H233.02Z" fill="#728D96"/>
<path d="M190.06 162.91C188.06 162.33 185.9 162.03 183.9 162.57C181.9 162.02 179.74 162.33 177.74 162.91C167.2 165.95 159.25 176.33 159.04 187.29C158.91 194.01 162.29 201.45 168.75 203.32C167.61 198.74 166.47 194.12 166.3 189.41C166.13 184.7 167.01 179.82 169.62 175.89C170.58 174.44 171.81 173.11 173.38 172.34C176.43 170.84 180.08 171.72 183.31 172.79C183.5 172.85 183.7 172.9 183.9 172.95C184.1 172.9 184.29 172.85 184.49 172.79C187.72 171.73 191.37 170.84 194.42 172.34C195.99 173.11 197.21 174.44 198.18 175.89C200.79 179.82 201.67 184.7 201.5 189.41C201.33 194.13 200.19 198.74 199.05 203.32C205.51 201.45 208.89 194.01 208.76 187.29C208.55 176.33 200.6 165.95 190.06 162.91Z" fill="#728D96"/>
<path d="M163.92 336.53L145.87 280.48C145.87 280.48 129.17 218 128.1 218.4C119.04 221.77 60.23 243.64 50.76 248.79C41.44 252.1 31.25 256.13 25.73 263.72C14.9 278.62 8.46001 303.45 4.14001 321.05C2.85001 326.32 1.55 331.49 0.25 336.71H79.4C79.4 336.65 79.4 336.59 79.4 336.54H163.92V336.53Z" fill="#38BC44"/>
<path d="M344.04 289.09C339.62 270.04 331.81 259.26 309.03 247.14C309.05 246.95 284.53 235.89 273.75 232.78C267.22 230.9 238.51 219.54 238.51 219.54C238.51 219.54 215.63 288.37 209.05 304.43C207.13 309.11 201.62 321.55 195.31 336.54H355.66C351.61 320.56 347.66 304.67 344.05 289.1L344.04 289.09Z" fill="#38BC44"/>
</svg>
