<svg width="306" height="338" viewBox="0 0 306 338" fill="none" xmlns="http://www.w3.org/2000/svg">
<path d="M256.82 325.26C252.25 269.71 244.62 170.06 246.18 142.1C250.78 26.27 199.97 5.98996 168.16 1.78996C132.73 -2.89004 76.34 11.26 62.54 82.08C51.72 137.57 57.8601 270.38 61.0201 325.26H256.83H256.82Z" fill="#2B0D04"/>
<path d="M92.87 118.59C91.7 115.49 91.9 112.55 89.74 109.72C87.77 107.14 84.7099 105.34 81.4699 105.27C71.1599 105.05 69.94 117.64 73.83 124.51C75.78 127.95 78.66 130.8 80.48 134.3C83.55 140.24 84.49 148.87 92.78 149.79C97.6 150.32 100.22 148.62 101.42 145.86C103.71 140.61 100.83 131.57 98.17 127.02C96.56 124.27 94 121.57 92.87 118.59Z" fill="#E2B477"/>
<path d="M113.14 155.29C116.37 175.56 120.64 200.2 113.78 217.8C105.94 237.9 96.02 241.93 78.05 248.88C86.42 260.3 94.3101 272.16 104.15 282.34C113.99 292.52 126.12 301.06 139.97 303.98C144.21 304.87 148.61 305.09 152.96 304.76V154.77C137.46 154.3 113.48 153.87 113.14 155.28V155.29Z" fill="#D2A965"/>
<path d="M97.7701 50.62C80.3501 74.85 80.9001 108.61 91.4001 135.48C99.8801 157.16 126.65 194.27 152.95 193.49V23.56C132.11 22.62 109.81 33.89 97.7701 50.63V50.62Z" fill="#E2B477"/>
<path d="M152.94 337.3V296.23C111.7 292.97 92.68 268.82 78.04 248.89C35.38 264.98 27.8201 268.38 13.5101 289.82C12.3401 291.58 11.3801 293.46 10.6401 295.44C8.48008 301.24 4.05008 314.96 0.580078 337.29H152.94V337.3Z" fill="#68F985"/>
<path d="M224.44 105.26C221.2 105.33 218.13 107.14 216.17 109.71C214.01 112.54 214.21 115.48 213.04 118.58C211.92 121.56 209.35 124.26 207.74 127.01C205.08 131.57 202.2 140.61 204.49 145.85C205.69 148.61 208.31 150.31 213.13 149.78C221.43 148.86 222.35 140.23 225.43 134.29C227.25 130.78 230.13 127.94 232.08 124.5C235.97 117.63 234.75 105.04 224.44 105.26Z" fill="#EDBD83"/>
<path d="M192.13 217.8C185.26 200.2 189.54 175.56 192.77 155.29C192.43 153.88 168.45 154.31 152.95 154.78V304.77C157.3 305.1 161.7 304.88 165.94 303.99C179.8 301.07 191.92 292.53 201.76 282.35C211.6 272.17 219.49 260.31 227.86 248.89C209.89 241.94 199.97 237.91 192.13 217.81V217.8Z" fill="#E2B477"/>
<path d="M152.95 23.55L152.46 193.48C178.76 194.26 206.02 157.15 214.49 135.47C224.99 108.6 225.54 74.84 208.12 50.61C196.08 33.87 173.78 22.61 152.94 23.54L152.95 23.55Z" fill="#EDBD83"/>
<path d="M305.33 337.3C301.86 314.97 297.42 301.25 295.26 295.45C294.53 293.47 293.57 291.59 292.39 289.83C278.08 268.39 270.52 264.99 227.86 248.9C213.21 268.83 194.2 292.98 152.96 296.24V337.31H305.32L305.33 337.3Z" fill="#4FE566"/>
<path d="M220.17 40.27C218.17 38.67 185.76 18.26 183.36 17.86C180.96 17.46 124.94 18.66 123.35 20.26C121.75 21.86 84.9401 47.86 82.1401 48.26V103.47L87.0201 116.27C87.0201 116.27 84.5401 94.67 90.9401 79.86C97.3401 65.06 118.48 48.65 118.48 48.65C118.48 48.65 131.75 65.46 159.36 70.66C150.16 63.46 140.55 51.05 140.55 51.05C140.55 51.05 165.36 70.66 174.16 73.85C172.16 68.25 164.16 53.05 164.16 53.05C164.16 53.05 188.57 68.25 193.37 82.45C197.37 79.05 187.44 59.45 187.44 59.45C187.44 59.45 218.75 87.08 215.38 114.12C223.15 102.23 231.38 100.36 227.87 90.25C227.47 89.11 222.18 41.84 220.18 40.24L220.17 40.27Z" fill="#2B0D04"/>
<path d="M92.66 149.41C88.13 149.41 84.47 153.08 84.47 157.6C84.47 162.12 88.14 165.79 92.66 165.79C97.18 165.79 100.86 162.12 100.86 157.6C100.86 153.08 97.19 149.41 92.66 149.41Z" fill="#A5E7B9"/>
<path d="M211.85 149.88C207.32 149.88 203.66 153.55 203.66 158.07C203.66 162.59 207.33 166.26 211.85 166.26C216.37 166.26 220.04 162.59 220.04 158.07C220.04 153.55 216.37 149.88 211.85 149.88Z" fill="#A5E7B9"/>
</svg>
