<svg width="295" height="337" viewBox="0 0 295 337" fill="none" xmlns="http://www.w3.org/2000/svg">
<path d="M212.34 157.88C218.4 176.36 222.97 219.04 213.23 236.34C240.13 188.56 236.8 133.34 234.46 80.72C232.59 38.67 197.46 2.43997 154.99 0.449968C139.72 -0.260032 121.89 3.98002 115.52 17.88C101.64 14.08 86.5399 20.57 76.4499 30.83C24.7499 83.45 75.2099 173.98 104.05 224.48C95.9499 210.3 99.2298 189.36 95.5698 173.9C92.1898 159.6 89.7899 150.28 98.3599 136.24C99.1199 134.99 100.02 133.72 101.37 133.18C103.36 132.39 105.7 133.54 106.96 135.27C108.22 137 108.65 139.18 109.06 141.29C112.63 159.71 116.53 187.66 129.18 202.45C140.65 215.86 163.16 218.32 171.02 200.52C179.88 180.47 194.04 162.58 202.33 141.57C204.25 140.21 206.51 142.77 207.43 144.93C209.25 149.18 210.88 153.51 212.32 157.89L212.34 157.88Z" fill="#414042"/>
<path d="M89.3198 125.2C88.1898 122.2 88.3799 119.35 86.2999 116.61C84.3999 114.12 81.4299 112.37 78.2999 112.3C68.3299 112.09 67.1499 124.26 70.9099 130.91C72.7899 134.24 75.5798 136.99 77.3398 140.38C80.3098 146.12 81.2098 154.47 89.2398 155.36C93.8998 155.88 96.4298 154.22 97.5898 151.56C99.7998 146.49 97.0198 137.74 94.4498 133.34C92.8998 130.69 90.4198 128.08 89.3298 125.2H89.3198Z" fill="#E2B477"/>
<path d="M108.91 160.69C112.04 180.29 116.17 204.11 109.53 221.14C101.95 240.58 92.36 244.47 74.98 251.19C83.08 262.23 90.7 273.71 100.22 283.55C109.74 293.39 121.46 301.65 134.86 304.47C138.95 305.34 143.21 305.54 147.42 305.23V160.19C132.43 159.73 109.24 159.31 108.91 160.68V160.69Z" fill="#D2A965"/>
<path d="M94.0599 59.48C77.2099 82.91 77.7499 115.55 87.8999 141.54C96.0999 162.51 121.99 198.39 147.42 197.64V33.31C127.26 32.4 105.7 43.3 94.0599 59.49V59.48Z" fill="#E2B477"/>
<path d="M147.41 336.7V296.99C107.53 293.83 89.1399 270.48 74.9799 251.21C33.7199 266.77 26.4198 270.05 12.5798 290.79C11.4398 292.49 10.5199 294.31 9.79993 296.23C7.71993 301.84 3.41982 315.11 0.0698242 336.7H147.41Z" fill="#001E53"/>
<path d="M216.55 112.31C213.42 112.38 210.45 114.13 208.55 116.62C206.46 119.36 206.66 122.2 205.53 125.21C204.44 128.09 201.96 130.7 200.41 133.35C197.84 137.76 195.06 146.5 197.27 151.57C198.43 154.23 200.96 155.89 205.63 155.37C213.65 154.48 214.55 146.14 217.53 140.39C219.29 137 222.08 134.25 223.96 130.92C227.72 124.27 226.54 112.1 216.57 112.31H216.55Z" fill="#EDBF88"/>
<path d="M185.31 221.14C178.67 204.12 182.8 180.29 185.93 160.69C185.6 159.32 162.41 159.74 147.42 160.2V305.24C151.63 305.55 155.88 305.35 159.98 304.48C173.38 301.66 185.1 293.4 194.62 283.56C204.14 273.72 211.76 262.24 219.86 251.2C202.48 244.48 192.89 240.59 185.31 221.15V221.14Z" fill="#E2B477"/>
<path d="M147.42 33.3001L146.95 197.63C172.38 198.38 198.74 162.5 206.94 141.53C217.09 115.55 217.63 82.9 200.78 59.47C189.14 43.28 167.58 32.3901 147.42 33.2901V33.3001Z" fill="#EDBF88"/>
<path d="M294.77 336.7C291.41 315.1 287.12 301.84 285.04 296.23C284.33 294.31 283.4 292.49 282.27 290.79C268.43 270.05 261.12 266.76 219.87 251.21C205.71 270.48 187.329 293.83 147.439 296.99V336.7H294.78H294.77Z" fill="#003BA5"/>
<path d="M212.42 49.4699C210.48 47.9199 179.15 28.19 176.82 27.8C174.5 27.41 120.33 28.5799 118.79 30.1199C117.24 31.6699 81.6399 56.8199 78.9399 57.1999V110.59L83.66 122.97C83.66 122.97 81.27 102.08 87.46 87.76C93.93 72.81 109.28 62.6599 118.41 49.2099C110 61.5999 155.65 74.0299 159.46 75.3499C178.04 81.8399 188.47 103.17 191.3 121.36C196.28 153.33 195.97 186.12 190.38 218C202.88 198.36 211.98 175.57 215.28 152.45C217.82 134.68 221.01 110.6 219.2 93.0899C218.37 84.9499 218.93 54.6699 212.43 49.4699H212.42Z" fill="#414042"/>
</svg>
