<svg width="308" height="337" viewBox="0 0 308 337" fill="none" xmlns="http://www.w3.org/2000/svg">
<path d="M72.0801 292.9C79.7501 306.01 87.4101 319.13 95.0801 332.24C95.4901 332.94 96.4601 334.42 97.7301 336.33H139.34C150.42 321.46 162.38 307.24 175.37 293.98C199.78 269.06 229.38 253.35 259.17 235.28C247.94 242.09 231.03 236.6 219.1 236.46C203.59 236.28 194.17 227.15 187.96 213.95C186.45 210.73 175.45 174.51 176.98 174.34C164.37 175.77 150.35 175.71 137.46 174.88C129.61 174.38 121.74 173.07 113.88 172.83C110.22 172.72 103.86 171.96 100.64 174.18C94.2001 178.63 97.5101 177.09 98.2201 183.62C99.2601 193.2 102.49 200.17 99.3301 210.11C97.5601 215.68 94.4801 220.8 90.4601 225.05C86.7601 228.97 82.2701 232.15 77.3001 234.25C72.4501 236.3 67.2301 237.36 62.2801 239.16C51.6701 243.01 43.9001 251.54 50.5301 261.84C57.1201 272.07 65.6301 281.83 72.0901 292.88L72.0801 292.9Z" fill="#DEB09D"/>
<path d="M67.6302 62.09C61.4502 75.57 60.1602 91.35 61.8302 106.73C51.5302 107.7 54.0402 121.55 58.9102 133.25C61.7602 140.09 65.4002 146.18 67.7702 148.55C70.4902 151.27 73.0502 152.59 75.3802 152.97C84.9502 173.92 98.3702 193.23 119.23 202.4C123.33 204.21 127.42 205.18 131.47 205.46V25.52C105.04 24.72 79.6802 35.81 67.6202 62.09H67.6302Z" fill="#E2BBA1"/>
<path d="M205.26 102C204.24 75.17 193.52 48.94 169.88 35.48C165.87 33.2 161.49 31.28 156.73 29.79C148.47 27.21 139.91 25.76 131.47 25.51V205.46C158.42 207.35 183.34 178.02 195.75 150.93C207.15 144.91 215.39 132.38 216.21 118.94C216.59 112.66 212.12 102.59 205.25 102.01L205.26 102Z" fill="#F9CFB3"/>
<path d="M164.99 336.33C178.05 294.04 188.7 254.3 189.11 237.36C121.14 281.77 88.2201 241.59 88.2201 241.59L66.3501 336.34H164.99V336.33Z" fill="white"/>
<path d="M274.4 336.33C274.9 332.58 275.32 328.82 275.87 325.08C278.83 304.94 282.66 284.92 287.59 265.19C290.01 255.58 293.04 250.35 284.05 243.49C278.28 239.08 270.57 237.24 263.95 235.43C227.44 225.53 191.41 208.69 191.41 208.69C191.41 208.69 165.67 269.27 142.46 336.33H274.39H274.4Z" fill="#31A838"/>
<path d="M27.4201 336.33H84.8601C80.8801 269.66 90.7201 221.76 90.7201 221.76L33.8801 244.25C19.2901 250.03 11.1001 265.57 14.6001 280.83L27.4201 336.34V336.33Z" fill="#31A838"/>
<path d="M62.8302 336.33H94.6802C94.5102 331.93 94.3402 327.52 94.2102 323.12C93.7202 306.55 93.4802 289.98 93.4902 273.41C93.5002 263.37 93.6102 253.32 93.8302 243.28C93.9302 238.26 94.0702 233.24 94.2302 228.22C94.3102 225.86 96.2902 215.83 97.1702 215.36C94.3802 216.77 76.4202 229.25 74.2502 231.3C66.5202 238.61 58.7902 245.91 51.0602 253.22L74.7602 277.8C74.7602 277.8 51.0802 298.67 51.0602 298.68C49.7802 299.81 56.2902 316.63 56.7602 318.14C57.8302 321.58 59.9902 328.03 62.8302 336.33Z" fill="#38BC44"/>
<path d="M192.5 336.33C206.42 318.72 220.24 302.25 233.76 287.05L212.64 273.24L233.76 246.87L217 218.4L191.53 207.6C169.99 258.01 153.9 300.93 141.88 336.33H192.5Z" fill="#38BC44"/>
<path d="M162.85 108.75C150.64 108.75 140.44 113.91 137.11 122.88L137.07 122.7H125.87L125.83 122.86C122.49 113.89 112.3 108.74 100.09 108.74C89.3 108.74 80.02 112.73 75.69 119.85V119.83L66.35 118.77L64 123.48L73.54 125.26C73.26 126.55 73.09 127.89 73.09 129.32C73.09 142.3 85.18 151.36 100.09 151.36C115 151.36 126.65 142.57 127.02 129.91L135.87 129.45C135.95 142.36 147.99 151.36 162.85 151.36C177.71 151.36 189.85 142.3 189.85 129.32C189.85 116.34 177.76 108.75 162.85 108.75ZM100.09 145.5C87.96 145.5 78.13 139.88 78.13 129.32C78.13 118.76 87.96 114.61 100.09 114.61C112.22 114.61 122.05 118.77 122.05 129.32C122.05 139.87 112.22 145.5 100.09 145.5ZM162.85 145.5C150.72 145.5 140.89 139.88 140.89 129.32C140.89 118.76 150.72 114.61 162.85 114.61C174.98 114.61 184.81 118.77 184.81 129.32C184.81 139.87 174.98 145.5 162.85 145.5Z" fill="#2C2C2C"/>
<path d="M69.29 107.02C70.05 89.92 74 72.35 85.32 61.11C89.27 59.67 106.54 71.19 110.12 72.94C127.35 81.37 147.02 87.09 161.34 100.43C178.18 116.12 185.48 138.4 187.6 160.88C189.26 178.42 187.92 196.09 186.48 213.65C185.95 220.13 185.4 226.63 185.58 233.13C185.46 228.87 194.55 217.85 196.4 213.21C199.71 204.89 201.87 196.11 202.77 187.21C204.63 168.94 200.26 150.58 202.35 132.15C203.22 124.53 205.02 117.04 206.12 109.45C209.34 87.21 207.78 55.11 194.11 36.4C181 18.46 156.26 8.94 134.6 9.36C95.62 10.11 72.01 41.99 60.02 75.88C44.65 119.32 53.1 174.71 69.86 216.48C67.66 188.32 72.73 160.18 70.08 132.3C69.35 124.63 68.89 115.89 69.29 107.03V107.02Z" fill="#4B8259"/>
<path d="M50.7401 336.33C50.5101 330.86 50.3201 325.43 49.9901 319.83C48.3601 291.73 45.6101 265.37 42.2001 240.96C31.0701 245.02 20.6901 247.54 13.4501 256.93C12.9301 257.61 12.4201 258.33 11.9301 259.08C5.9701 268.24 6.0401 279.69 5.0301 290.17C3.6001 305.12 2.1601 320.07 0.730097 335.01C0.690097 335.45 0.650098 335.89 0.600098 336.33H50.7301H50.7401Z" fill="#38BC44"/>
<path d="M307.87 336.33C306.73 322.04 305.1 307.35 302.73 292.23C301.24 282.71 299.56 273.47 297.71 264.51C295.88 255.62 289.98 248.11 281.8 244.11C281.8 244.11 274.95 238.7 265.07 235.92C262.76 245.51 261.61 257.08 259.53 265.82C253.53 291.16 250.55 314.86 249.52 336.32H307.86L307.87 336.33Z" fill="#38BC44"/>
<path d="M222.7 78.33C228.6 97.58 230.31 117.9 229.08 137.94C226.95 172.7 227.5 197.17 212.8 241.09C212.59 241.7 207.07 255.71 204.05 264.04C209.74 269.84 218.68 273.64 225.33 277.03C229 278.9 232.76 280.68 236.5 282.51C237.58 278.64 243.6 260.32 249.54 248.37C281.56 183.89 286.48 50.8 210.72 7.47C196.22 -0.830002 179.08 -1.91 163.17 2.75C157.56 4.39 154.79 5.86 152.55 11.61C151.63 13.96 149.73 31.28 155.08 30.96C167.94 30.2 181.13 30.66 193.39 34.98C210.14 40.88 218.01 63 222.72 78.33H222.7Z" fill="#4B8259"/>
</svg>
