<svg width="312" height="337" viewBox="0 0 312 337" fill="none" xmlns="http://www.w3.org/2000/svg">
<path d="M220 29.17C218.89 28.02 217.81 26.9 216.78 25.84C217.81 26.89 218.89 28.01 220 29.17Z" fill="#2B2924"/>
<path d="M83.6697 92.44C83.7797 87.08 84.0797 81.71 84.8297 76.28C90.8697 32.4 129.07 -5.68998 175.31 1.57002C224.64 9.31002 249.37 45.68 254.28 94.6C255.96 111.38 253.01 125.31 257.86 141.58C263.05 158.97 268.88 176.15 273.64 193.67C281.21 221.57 288.79 249.56 292.82 278.19C295.24 295.43 294.13 317.08 278.51 324.76C271.81 328.06 263.98 327.77 256.52 327.41C206.17 324.99 155.81 321.95 105.43 320.15C90.6597 319.62 69.9497 325.87 56.3697 320.29C4.87971 299.13 54.7397 230.78 65.3997 201.2C72.8897 180.41 78.4997 158.92 82.0597 137.11C84.5597 121.83 83.3797 107.19 83.6797 92.45L83.6697 92.44Z" fill="#2B0D04"/>
<path d="M117.55 207.75C117.55 207.75 127.57 185.9 123.79 160.46C120.9 140.96 201.89 167.65 201.89 167.65C201.89 167.65 198.56 186.19 201.89 202.4C205.22 218.61 163.15 249.65 163.15 249.65L135.47 235.54L131.59 239.51L117.54 207.76L117.55 207.75Z" fill="#DEB09D"/>
<path d="M187.67 68.58C192.39 65.31 210.83 56.66 210.13 50.21C210.95 57.75 214.78 64.11 216.78 71.24C219.02 79.24 222.27 86.83 223.86 95.07C226.81 110.36 226.96 128.01 221.89 142.92C217.17 156.8 207.5 167.53 196.75 177.2C195.99 177.89 195.22 178.57 194.45 179.26C185.87 186.88 177.38 190.47 168.97 190.24L168.76 78.17C175.41 74.94 181.95 72.56 187.67 68.59V68.58Z" fill="#F9CFB3"/>
<path d="M138.42 97.44C148.55 91.79 168.42 77.68 168.97 77.95V190.23C160.56 190.47 152.07 186.88 143.49 179.25C142.72 178.57 141.95 177.88 141.18 177.19C129.53 166.71 119.12 156.03 116.49 140.73C116.14 138.71 115.03 136.31 112.99 136.19C106.31 135.79 103.2 124.2 101.88 117.16C112.44 108.6 126.75 103.95 138.41 97.45L138.42 97.44Z" fill="#E2BBA1"/>
<path d="M148.29 337H172.46L197.6 277.79C198.39 275.92 198.12 273.8 196.88 272.17C188.14 260.77 175.05 248.49 160.37 244.72C145.69 248.49 132.6 260.76 123.86 272.17C122.62 273.79 122.35 275.92 123.14 277.79L148.28 337H148.29Z" fill="#E6E7E8"/>
<path d="M311.62 337C309.25 311.05 305.91 286.87 302.79 275.2C296.1 250.17 281.33 243.55 256.76 236.04C253.04 234.9 200.34 223.68 203.69 212.71C192.6 248.98 181.37 285.33 170.23 321.62C168.65 326.75 167.08 331.87 165.5 337H311.62Z" fill="#728D96"/>
<path d="M65.3299 337H154.1C152.52 331.87 150.95 326.75 149.37 321.62C138.23 285.33 127.02 248.98 115.91 212.71C115.91 214.49 93.9699 228.17 91.3999 229.19C81.2899 233.2 72.6099 233.32 63.6099 235.12C69.1899 268.12 66.7399 302.58 65.3299 336.99V337Z" fill="#647C82"/>
<path d="M140.91 329.78C140.84 330.07 140.86 330.37 140.97 330.65L143.44 337.01H177.3L179.77 330.65C179.88 330.37 179.9 330.07 179.83 329.78L167.18 272.38C166.78 270.56 167.04 268.65 167.91 267L172.71 257.97C172.93 257.42 172.8 256.8 172.38 256.39C170.73 254.75 169.08 253.11 167.43 251.47C166.29 250.34 164.82 249.23 163.88 247.94C162.94 246.65 162.45 245.12 160.99 244.14C159.32 243.02 157.89 245.65 157.37 246.82C156.64 248.46 155.13 249.63 153.87 250.87C152.02 252.71 150.18 254.54 148.33 256.38C147.92 256.79 147.79 257.41 148 257.96L152.8 266.99C153.68 268.64 153.94 270.54 153.54 272.37L140.89 329.77L140.91 329.78Z" fill="#3D5872"/>
<path d="M109.26 230.24L118.72 203.13L126.33 216.93C134.93 229.07 153.71 241.3 160.38 241.49C167.05 241.31 184.99 229.66 194.42 216.93L202.03 203.13L211.49 230.24C211.62 230.63 211.63 231.06 211.51 231.45L194.19 287.53C193.71 289.1 191.59 297.48 190.62 288.11L180.93 271.27C179.8 269.31 178.48 267.45 176.99 265.73L160.38 245.02L143.76 265.73C142.27 267.45 140.95 269.31 139.82 271.27L130.13 288.11C129.16 297.49 127.04 289.11 126.56 287.53L109.24 231.45C109.12 231.05 109.13 230.63 109.26 230.24Z" fill="white"/>
<path d="M196.59 337C211.81 314.3 225.86 293.99 225.21 292.82C225.19 292.79 209.23 264.24 209.23 264.24L230.98 266.57C228.75 259.65 223.75 225.74 217.35 222.31L205.07 212.42L178.92 290.34L164.78 336.99H196.58L196.59 337Z" fill="#647C82"/>
<path d="M95.5398 292.83C94.8798 294.01 108.6 314.25 123.68 337.01H155.96L141.82 290.36L115.67 212.44L103.39 222.33C96.9998 225.75 91.9898 259.67 89.7598 266.59L111.51 264.26C111.51 264.26 95.5398 292.81 95.5298 292.84L95.5398 292.83Z" fill="#728D96"/>
<path d="M70.2599 337C69.1199 324.18 67.4399 311.4 67.7599 298.49C68.2799 277.32 67.1499 256.07 63.6099 235.13C59.1799 236.01 54.6799 237.3 49.8899 239.67C29.5899 249.69 15.2499 281.16 9.02986 301.57C5.41986 313.39 2.93986 325.19 0.859863 337.01H70.2599V337Z" fill="#647C82"/>
</svg>
