<svg width="316" height="337" viewBox="0 0 316 337" fill="none" xmlns="http://www.w3.org/2000/svg">
<path d="M98.2097 28.86C99.3197 27.71 100.39 26.59 101.43 25.53C100.39 26.59 99.3197 27.7 98.2097 28.86Z" fill="#2B2924"/>
<path d="M234.76 92.08C234.47 86.74 234.03 81.32 233.29 75.94C227.08 30.77 188.59 -7.39998 140.22 1.73002C128.16 4.01002 109.97 7.29006 104.63 20.5201C83.0498 18.6701 73.5198 50.7 70.7498 67.22C70.1798 70.59 69.6998 73.95 69.3198 77.34C67.5798 93.05 68.3898 108.89 69.2698 124.62C70.0498 138.73 73.0098 154.91 80.7798 167.02C86.8498 176.48 95.8198 189.96 105.97 195.4C126.78 206.55 149.42 205.45 171.98 201.95C183.08 200.23 194.71 199.81 204.46 192.81C216.5 184.17 222.59 175.96 226.5 161.43C232.57 138.88 236.03 115.45 234.76 92.0601V92.08Z" fill="#013302"/>
<path d="M200.6 207.33C200.6 207.33 190.59 185.49 194.36 160.07C197.25 140.59 116.3 167.25 116.3 167.25C116.3 167.25 119.63 185.78 116.3 201.97C112.97 218.16 155.01 249.19 155.01 249.19L182.67 235.09L186.55 239.05L200.59 207.32L200.6 207.33Z" fill="#E2A77D"/>
<path d="M130.52 68.24C125.8 64.97 107.38 56.33 108.08 49.87C106.63 63.2 99.6798 72 93.2398 82.92C93.2198 82.98 93.2097 83.03 93.1897 83.08C91.4897 87.61 88.7998 91.27 86.3998 94.95C84.5498 98.44 82.8597 101.92 81.6997 104.99C81.2197 107.16 81.0598 109.51 81.4298 112.17C81.9898 116.13 84.6798 135.27 93.2798 135.78C95.3198 135.9 96.4298 138.3 96.7798 140.32C99.3998 155.61 109.81 166.29 121.45 176.76C122.22 177.45 122.98 178.13 123.75 178.82C132.59 186.67 141.32 190.27 149.98 189.78V79.29C143.06 75.97 136.46 72.33 130.52 68.22V68.24Z" fill="#F0B784"/>
<path d="M206.51 100.19C188.84 94.4699 168.22 88.0801 149.97 79.3101V189.8C150.06 189.8 150.15 189.8 150.24 189.8C158.98 190.37 167.81 186.77 176.73 178.84C178.39 177.37 180.04 175.89 181.68 174.39C186.68 169.81 191.51 165.01 195.57 159.58C199.79 153.92 200.65 147.5 201.41 140.94C201.74 138.11 204.47 137.22 206.84 135.65C211.88 132.31 213.09 129 214.55 121.45C216.98 108.81 219.68 104.48 206.5 100.21L206.51 100.19Z" fill="#FFC28E"/>
<path d="M136.58 336.7H179.01L194.99 277.31C195.78 275.44 195.51 273.32 194.27 271.7C185.54 260.3 172.46 248.04 157.79 244.27C143.12 248.04 130.04 260.3 121.31 271.7C120.07 273.32 119.8 275.44 120.59 277.31L136.57 336.7H136.58Z" fill="#E6E7E8"/>
<path d="M146.05 336.7C135.53 302.46 124.97 246.45 114.5 212.22C114.98 213.78 92.5999 227.73 90.0199 228.75C74.9499 234.73 64.1799 235.15 48.5199 239.21C35.5899 242.57 17.3799 246.79 9.16992 257.9C5.08992 263.43 1.98982 307.94 0.569824 336.7H146.05Z" fill="#414042"/>
<path d="M315.02 336.7C313.6 307.94 310.5 263.43 306.42 257.9C298.22 246.78 280 242.56 267.07 239.21C251.41 235.15 240.64 234.73 225.57 228.75C222.99 227.73 200.61 213.78 201.09 212.22C190.62 246.45 180.06 302.46 169.54 336.7H315.02Z" fill="#231F20"/>
<path d="M150.98 271.91L141.5 336.71H174.1L164.62 271.91C164.22 270.09 164.48 268.19 165.35 266.54L170.15 257.52C170.37 256.98 170.24 256.36 169.82 255.94C167.97 254.11 166.12 252.27 164.28 250.43C163.03 249.18 161.51 248.01 160.78 246.38C160.26 245.21 158.82 242.58 157.16 243.7C155.7 244.67 155.22 246.2 154.27 247.49C153.33 248.78 151.86 249.89 150.72 251.02C149.07 252.66 147.42 254.3 145.78 255.93C145.36 256.34 145.24 256.97 145.45 257.51L150.25 266.53C151.13 268.18 151.39 270.08 150.98 271.9V271.91Z" fill="#3D5872"/>
<path d="M208.88 229.79L199.42 202.69L191.82 216.48C183.23 228.61 164.46 240.84 157.79 241.02C151.13 240.84 133.19 229.2 123.76 216.48L116.16 202.69L106.7 229.79C106.56 230.18 106.55 230.61 106.68 231L123.99 287.05C124.47 288.62 126.59 296.99 127.56 287.63L137.24 270.8C138.37 268.84 139.69 266.98 141.18 265.27L157.78 244.57L174.38 265.27C175.87 266.99 177.19 268.84 178.32 270.8L188 287.63C188.97 297 191.08 288.63 191.57 287.05L208.88 231C209 230.6 208.99 230.18 208.86 229.79H208.88Z" fill="white"/>
<path d="M92.9998 292.34C92.5698 293.11 98.5997 324.04 107.11 336.7H146.86L139.26 289.87L113.13 212L100.86 221.88C94.4697 225.3 89.4697 259.2 87.2397 266.11L108.98 263.78C108.98 263.78 93.0298 292.31 93.0098 292.34H92.9998Z" fill="#231F20"/>
<path d="M208.76 336.7C217.14 324.04 223.03 293.12 222.6 292.34C222.58 292.31 206.63 263.78 206.63 263.78L228.37 266.11C226.14 259.2 221.14 225.31 214.75 221.88L202.48 212L176.35 289.87L168.75 336.7H208.77H208.76Z" fill="#414042"/>
<path d="M217.41 106.1L215.42 100.86L202.95 103.36C202.46 102.51 201.89 101.69 201.19 100.94C197.06 96.4799 189.25 93.92 179.76 93.92C170.27 93.92 159.31 96.5699 154.58 102.44L154.45 102.19C151.78 103.55 149.51 104.02 147.66 104.04C145.8 104.03 143.54 103.55 140.86 102.19L140.73 102.44C136 96.5699 124.85 93.92 115.55 93.92C106.25 93.92 98.2499 96.4799 94.1099 100.94C93.4099 101.69 92.8499 102.51 92.3499 103.36L81.4598 101.29L80.3699 106.52L90.7399 108.32C90.6499 109.16 90.6198 110.02 90.6898 110.9C91.6698 123.74 104 130.46 115.69 130.46C116.01 130.46 116.33 130.46 116.64 130.45C118.82 130.38 120.97 130.07 123.04 129.52C131.83 127.21 138.84 120.88 142.25 112.14C142.72 110.93 142.96 109.72 142.97 108.54C144.66 109.01 146.22 109.23 147.64 109.23C149.05 109.23 150.61 109.01 152.31 108.54C152.31 109.72 152.55 110.93 153.03 112.14C156.44 120.88 163.44 127.21 172.24 129.52C174.31 130.06 176.46 130.38 178.64 130.45C178.96 130.45 179.28 130.46 179.6 130.46C191.28 130.46 203.62 123.75 204.6 110.9C204.67 110.02 204.64 109.16 204.55 108.32L217.41 106.09V106.1ZM137.46 110.26C134.65 117.44 128.92 122.65 121.74 124.53C120.04 124.97 118.27 125.23 116.48 125.29H115.69C106.38 125.29 96.5698 120.22 95.8298 110.51C95.6498 108.12 96.3199 106.14 97.8799 104.45C100.99 101.09 107.59 99.09 115.53 99.09C125.21 99.09 134.24 102.03 137.01 106.08C137.9 107.39 138.05 108.73 137.44 110.26H137.46ZM179.61 125.3H178.82C177.03 125.23 175.26 124.98 173.56 124.53C166.38 122.64 160.65 117.44 157.84 110.26C157.24 108.73 157.38 107.4 158.28 106.08C161.05 102.03 170.08 99.09 179.76 99.09C187.7 99.09 194.3 101.1 197.41 104.45C198.97 106.14 199.65 108.12 199.46 110.51C198.72 120.22 188.91 125.3 179.61 125.3Z" fill="#231F20"/>
</svg>
