<svg width="297" height="337" viewBox="0 0 297 337" fill="none" xmlns="http://www.w3.org/2000/svg">
<path d="M135.62 235.27C129.68 234.36 123.74 232.91 118.5 229.97C114.11 227.5 110.42 224.09 107.18 220.23C104.39 224.62 101.64 229.03 99.8502 234.21C99.7202 234.59 99.7102 235 99.8302 235.39C107.26 259.52 114.42 285.51 136.3 300.75C139.47 302.96 142.86 304.91 146.53 306.16C155.81 309.32 166.62 307.54 174.4 301.56C185.45 293.06 186.06 278.56 189.94 266.23C193.17 255.97 196.29 245.67 199.47 235.39C199.59 235 199.58 234.59 199.45 234.21L195.92 224.1C178.05 234.32 156.13 238.41 135.63 235.28L135.62 235.27Z" fill="#DEB09D"/>
<path d="M190.121 207.97C190.091 207.68 190.151 207.36 190.091 207.08C187.771 195.77 188.771 183.33 189.531 177.16C188.071 178.57 186.601 179.96 185.081 181.32C184.341 181.99 183.591 182.66 182.841 183.32C174.481 190.74 166.221 194.24 158.021 194.01C149.831 194.24 141.561 190.74 133.201 183.32C132.451 182.65 131.701 181.98 130.961 181.32C126.601 177.4 122.441 173.45 118.801 169.23C120.011 180.44 119.071 191.88 116.021 202.73C114.131 209.44 110.621 214.81 107.181 220.22C110.421 224.09 114.111 227.49 118.501 229.96C123.741 232.9 129.681 234.36 135.621 235.26C156.121 238.39 178.041 234.3 195.911 224.08L190.221 207.78L190.121 207.96V207.97Z" fill="#DEB09D"/>
<path d="M211.83 101.14C211.7 100.89 211.561 100.64 211.431 100.39C208.081 94 206.54 85.05 204.59 78.12C202.64 71.17 198.91 64.98 198.11 57.63C198.79 63.92 180.83 72.35 176.23 75.53C170.72 79.35 164.421 81.67 158.021 84.76V194.02C166.211 194.25 174.48 190.75 182.84 183.33C183.59 182.66 184.34 181.99 185.08 181.33C186.59 179.97 188.071 178.58 189.531 177.17C198.171 168.82 205.64 159.51 209.57 147.94C210.55 145.07 210.06 145.53 210.74 142.62C212.9 142.59 216.061 141.94 217.151 140.04C218.211 138.2 218.441 136.01 218.651 133.89C218.921 131.1 219.2 124.49 219.47 121.7C220.5 111.31 216.11 108.92 211.82 101.14H211.83Z" fill="#F9CFB3"/>
<path d="M158.02 84.65C157.48 84.39 135.21 91.07 125.34 96.57C113.98 102.9 102.96 114.5 92.6704 122.84C93.9604 129.7 96.9904 140.99 103.49 141.38C105.48 141.5 106.56 143.84 106.9 145.8C108.48 154.99 112.94 162.45 118.79 169.23C122.43 173.45 126.6 177.4 130.95 181.32C131.69 181.99 132.44 182.66 133.19 183.32C141.55 190.74 149.82 194.24 158.01 194.01L157.96 164.74L157.81 84.84C157.88 84.81 157.95 84.78 158.02 84.75V84.64V84.65Z" fill="#E2BBA1"/>
<path d="M107.97 218.99C107.97 219.62 107.911 220.2 107.781 220.83C107.591 220.64 107.4 220.39 107.21 220.2C107.47 219.82 107.72 219.37 107.97 218.99Z" fill="#E2BBA1"/>
<path d="M168.73 1.32C140.4 -2.37 111.95 9.95 95.2403 33.23C90.1103 40.37 86.5903 48.54 83.7303 56.85C77.0203 76.33 72.6903 97.9 76.3803 118.45C78.1103 128.07 81.7403 137.32 87.6303 145.16C92.9403 152.21 100.41 157.72 108.74 160.58C107.03 158.98 106.12 157.05 105.08 155.01C104.15 153.19 103.26 151.39 102.64 149.47C101.53 146.09 100.78 142.55 100.48 138.99C99.9003 132.03 101.09 124.65 105.25 118.89C114.61 105.96 137.7 100.21 151.77 94.61C166.11 88.91 199.14 77.61 198.15 57.99C199.25 67.07 201.08 77.87 204.83 86.3C210.47 98.96 217.28 108.86 218.62 123.22C220.07 138.82 216.24 154.87 207.9 168.14C213.14 168.33 218.1 165.37 221.56 161.43C239.46 141.05 248.14 111.63 247.62 84.82C247.17 61.7 240.12 42.07 221.57 27.73C219.9 26.44 204.22 17.68 204.35 20.63C203.89 9.95 176.32 2.31 168.72 1.32H168.73Z" fill="black"/>
<path d="M296.98 337C294.67 311.72 291.41 288.17 288.38 276.8C281.87 252.42 267.47 245.96 243.55 238.66C239.92 237.55 190.81 230.12 194.07 219.44C183.27 254.77 170.11 286.67 159.25 322.02C157.71 327.02 156.18 332.01 154.64 337.01H296.98V337Z" fill="#728D96"/>
<path d="M57.0703 337H143.54C142 332 140.47 327.01 138.93 322.01C128.08 286.66 119.66 252.92 108.84 217.6C108.84 219.34 84.9703 230.99 82.4703 231.98C72.6203 235.89 64.1604 236.01 55.4004 237.76C60.8404 269.9 58.4503 303.47 57.0703 336.99V337Z" fill="#647C82"/>
<path d="M137.88 337H161.42C166.51 325.02 171.6 313.04 176.68 301.06C180.59 291.86 185.22 284.36 188.07 274.78C189.73 269.19 192.27 263.93 193.86 258.31C194.66 255.48 195.05 242.66 196.73 241.22C184.66 251.54 168.81 257.32 152.93 257.21C143.69 257.14 134.49 255.08 126.06 251.3C119.04 248.15 112.38 240.29 104.71 239.93C113.04 273.86 124.23 304.91 137.86 337.01L137.88 337Z" fill="#E6E7E8"/>
<path d="M184.93 337C199.76 314.88 213.45 295.1 212.81 293.97C212.79 293.94 197.24 266.13 197.24 266.13L218.43 268.4C216.26 261.66 211.39 228.62 205.16 225.29L193.19 215.66L167.72 291.56L153.95 337H184.92H184.93Z" fill="#647C82"/>
<path d="M86.4904 293.97C85.8504 295.12 99.2104 314.83 113.9 337H145.34L131.57 291.56L108.31 215.93L94.1304 225.29C87.9004 228.62 83.0304 261.66 80.8604 268.4L102.05 266.13C102.05 266.13 86.5003 293.94 86.4803 293.97H86.4904Z" fill="#728D96"/>
<path d="M61.8701 337C60.7601 324.51 59.1202 312.07 59.4302 299.48C59.9402 278.86 58.8401 258.16 55.3901 237.77C51.0701 238.63 47.0501 240.84 42.0201 242.19C5.89014 251.91 4.83008 276.47 2.21008 302.48C1.01008 314.46 2.6301 325.48 0.600098 337H61.8501H61.8701Z" fill="#647C82"/>
<path d="M116.04 202.73C115.34 205.21 114.58 208.19 112.67 209.97C111.78 210.8 106.63 213.97 106.83 215.05C108.73 223.56 108.8 232.39 107.08 240.9C105.56 248.21 102.89 255.51 95.6501 258.81C94.5701 259.32 93.6801 259.76 92.7901 260.46C92.4101 260.72 92.09 261.03 91.71 261.35C89.74 263.13 90.5 264.02 90.95 266.5C91.01 266.94 91.0701 267.33 91.1401 267.77C91.6501 271.39 91.71 275.07 91.2 278.63C90.82 281.74 90.0601 284.79 89.1701 287.78C85.9301 298.96 82.56 309.76 71.7 315.79C64.65 319.73 55.2501 321.95 52.7701 329.57C43.7501 303.34 56.58 277.74 77.1 261.42C77.29 261.29 77.42 261.17 77.61 261.04C78.24 260.53 79.0101 260.02 79.3901 259.26C80.0901 258.05 79.9601 256.66 79.5101 255.32C79.2601 254.49 78.8801 253.6 78.5001 252.84C74.4901 243.75 76.0801 232.7 81.8001 224.7C86.0601 218.79 100.92 216.38 100.03 207.55C99.8401 205.33 98.38 203.42 97.23 201.45C89.1 187.03 102.44 176.17 114.13 168.74C115.08 168.17 116.04 167.6 116.93 167.03C117.56 167.79 118.13 168.55 118.77 169.25C119.98 180.43 119.09 191.86 116.04 202.72V202.73Z" fill="black"/>
<path d="M91.7101 261.36C89.7401 263.14 90.5001 264.03 90.9501 266.51C91.0101 266.95 91.0701 267.34 91.1401 267.78C87.0801 265.75 81.8101 263.27 77.1001 261.43C77.2901 261.3 77.4201 261.18 77.6101 261.05C78.2401 260.54 79.0101 260.03 79.3901 259.27C80.0901 258.06 79.9601 256.67 79.5101 255.33C83.0701 256.22 88.2102 257.93 92.7902 260.47C92.4102 260.73 92.0901 261.04 91.7101 261.36Z" fill="#E6E7E8"/>
</svg>
